<svg width="240" height="240" viewBox="0 0 240 240" fill="none" xmlns="http://www.w3.org/2000/svg">
<rect width="240" height="240" fill="#151515"/>
<path d="M63.5232 86.6416C66.3114 86.6416 67.7291 88.3495 68.2489 90.1522L74.6759 88.2072C73.6362 83.985 69.8557 80 63.3814 80C56.4818 80 51 85.171 51 92.5242C51 99.83 56.6236 105.001 63.6177 105.001C69.9029 105.001 73.778 100.921 74.8177 96.7939L68.4852 94.8488C67.9654 96.6041 66.4059 98.3594 63.6177 98.3594C60.6405 98.3594 58.1359 96.272 58.1359 92.5242C58.1359 88.729 60.546 86.6416 63.5232 86.6416Z" fill="#FEF9F3"/>
<path d="M89.7351 98.3594C87.0414 98.3594 84.4423 96.4143 84.4423 92.4768C84.4423 88.4918 87.0414 86.6416 89.7351 86.6416C92.476 86.6416 95.0279 88.4918 95.0279 92.4768C95.0279 96.4618 92.476 98.3594 89.7351 98.3594ZM89.7351 80C82.741 80 77.2592 85.171 77.2592 92.4768C77.2592 99.7826 82.741 105.001 89.7351 105.001C96.7765 105.001 106.835 99.7826 106.835 92.4768C106.835 85.171 96.7765 80 89.7351 80Z" fill="#FEF9F3"/>
<path d="M114.018 113.303V102.439C115.105 103.768 117.373 104.811 120.398 104.811C126.966 104.811 131.598 99.6403 131.598 92.4294C131.598 85.3608 127.486 80.1423 120.681 80.1423C117.326 80.1423 114.774 81.613 113.782 83.1311V80.7116H106.835V113.303H114.018ZM124.556 92.4768C124.556 96.4143 122.052 98.3594 119.216 98.3594C116.428 98.3594 113.923 96.3669 113.923 92.4768C113.923 88.5393 116.428 86.6416 119.216 86.6416C122.052 86.6416 124.556 88.5393 124.556 92.4768Z" fill="#FEF9F3"/>
<path d="M144.248 113.351L158.708 80.7116H151.1L145.902 93.3307L140.183 80.7116H132.15L142.026 101.111L136.686 113.351H144.248Z" fill="#FEF9F3"/>
<path d="M57.9468 150.939V148.282C59.0337 150.085 61.4439 151.461 64.5628 151.461C71.1316 151.461 75.7628 146.29 75.7628 139.079C75.7628 132.01 71.6514 126.792 64.8464 126.792C61.6329 126.792 59.0337 128.12 58.0413 129.591V116.592H51V150.939H57.9468ZM68.5797 139.126C68.5797 143.064 66.0751 145.009 63.2869 145.009C60.4987 145.009 57.9468 143.016 57.9468 139.126C57.9468 135.141 60.4987 133.291 63.2869 133.291C66.0751 133.291 68.5797 135.141 68.5797 139.126Z" fill="#FEF9F3"/>
<path d="M95.5208 150.939H102.42C102.373 150.559 102.184 148.852 102.184 146.717V127.361H95.001V140.787C95.001 143.159 93.4887 144.819 91.0786 144.819C88.5267 144.819 87.298 143.016 87.298 140.739V127.361H80.1149V142.257C80.1149 147.286 83.3284 151.461 89.0465 151.461C91.4094 151.461 94.1031 150.607 95.3318 148.567C95.3318 149.184 95.4263 150.512 95.5208 150.939Z" fill="#FEF9F3"/>
<path d="M131.565 116.592H124.477V129.211C123.91 128.31 122.161 126.792 118.144 126.792C111.481 126.792 106.755 132.058 106.755 139.079C106.755 146.337 111.764 151.461 118.38 151.461C121.216 151.461 123.579 150.275 124.666 148.662C124.666 149.611 124.807 150.654 124.855 150.939H131.754C131.707 150.417 131.565 148.852 131.565 146.717V116.592ZM113.985 139.126C113.985 135.189 116.49 133.291 119.278 133.291C122.066 133.291 124.571 135.189 124.571 139.126C124.571 143.016 122.066 145.009 119.278 145.009C116.49 145.009 113.985 143.016 113.985 139.126Z" fill="#FEF9F3"/>
<path d="M161.147 116.592H154.059V129.211C153.492 128.31 151.743 126.792 147.726 126.792C141.063 126.792 136.337 132.058 136.337 139.079C136.337 146.337 141.346 151.461 147.962 151.461C150.798 151.461 153.161 150.275 154.248 148.662C154.248 149.611 154.389 150.654 154.437 150.939H161.336C161.289 150.417 161.147 148.852 161.147 146.717V116.592ZM143.567 139.126C143.567 135.189 146.072 133.291 148.86 133.291C151.648 133.291 154.153 135.189 154.153 139.126C154.153 143.016 151.648 145.009 148.86 145.009C146.072 145.009 143.567 143.016 143.567 139.126Z" fill="#FEF9F3"/>
<path d="M173.539 160L188 127.361H180.392L175.193 139.98L169.475 127.361H161.441L171.318 147.76L165.978 160H173.539Z" fill="#FEF9F3"/>
</svg>
