<svg width="151" height="135" viewBox="0 0 151 135" fill="none" xmlns="http://www.w3.org/2000/svg">
<rect width="151" height="135" fill="white"/>
<rect width="151" height="135" fill="#151515"/>
<path d="M54.2004 65.302C59.3658 65.302 61.9922 68.4367 62.9553 71.7456H74.8619C72.9358 63.9959 65.9319 53.1115 53.9377 53.1115C41.1556 53.1115 31 62.6027 31 76.0993C31 89.5088 41.4183 99 54.3755 99C66.0195 99 73.1984 87.9415 75.1245 80.366H63.393C62.43 83.5877 59.5409 86.8095 54.3755 86.8095C48.8599 86.8095 44.2198 82.9782 44.2198 76.0993C44.2198 69.1333 48.6848 65.302 54.2004 65.302Z" fill="#D87342"/>
<path d="M87.3697 98.0422V93.166C89.3833 96.4748 93.8482 99 99.6265 99C111.796 99 120.375 89.5089 120.375 76.2735C120.375 63.2993 112.759 53.7211 100.152 53.7211C94.1985 53.7211 89.3833 56.1592 87.5448 58.8585V35H74.5V98.0422H87.3697ZM107.068 76.3605C107.068 83.5878 102.428 87.1578 97.2627 87.1578C92.0973 87.1578 87.3697 83.5007 87.3697 76.3605C87.3697 69.0463 92.0973 65.6503 97.2627 65.6503C102.428 65.6503 107.068 69.0463 107.068 76.3605Z" fill="#D87342"/>
</svg>
