<svg width="19" height="19" viewBox="0 0 19 19" fill="none" xmlns="http://www.w3.org/2000/svg">
<path d="M17.5689 5.25588V16.7675H6.06661V5.25588H17.5689ZM17.5689 3.97681H6.06661C5.72765 3.97681 5.40258 4.11157 5.1629 4.35144C4.92322 4.59131 4.78857 4.91665 4.78857 5.25588V16.7675C4.78857 17.1067 4.92322 17.4321 5.1629 17.6719C5.40258 17.9118 5.72765 18.0466 6.06661 18.0466H17.5689C17.9079 18.0466 18.2329 17.9118 18.4726 17.6719C18.7123 17.4321 18.8469 17.1067 18.8469 16.7675V5.25588C18.8469 4.91665 18.7123 4.59131 18.4726 4.35144C18.2329 4.11157 17.9079 3.97681 17.5689 3.97681Z" fill="#7D7D7D"/>
<path d="M2.23116 10.3722H0.953125V1.41872C0.953125 1.07949 1.08777 0.754151 1.32745 0.514279C1.56713 0.274407 1.8922 0.139648 2.23116 0.139648H11.1774V1.41872H2.23116V10.3722Z" fill="#7D7D7D"/>
</svg>
