<svg width="158" height="28" viewBox="0 0 158 28" fill="none" xmlns="http://www.w3.org/2000/svg">
<path d="M7.95 10.56C9.72 10.56 10.62 11.64 10.95 12.78L15.03 11.55C14.37 8.88 11.97 6.36 7.86 6.36C3.48 6.36 0 9.63 0 14.28C0 18.9 3.57 22.17 8.01 22.17C12 22.17 14.46 19.59 15.12 16.98L11.1 15.75C10.77 16.86 9.78 17.97 8.01 17.97C6.12 17.97 4.53 16.65 4.53 14.28C4.53 11.88 6.06 10.56 7.95 10.56Z" fill="#151515"/>
<path d="M24.5899 17.97C22.8799 17.97 21.2299 16.74 21.2299 14.25C21.2299 11.73 22.8799 10.56 24.5899 10.56C26.3299 10.56 27.9499 11.73 27.9499 14.25C27.9499 16.77 26.3299 17.97 24.5899 17.97ZM24.5899 6.36C20.1499 6.36 16.6699 9.63 16.6699 14.25C16.6699 18.87 20.1499 22.17 24.5899 22.17C29.0599 22.17 32 18.87 32 14.25C32 9.63 29.0599 6.36 24.5899 6.36Z" fill="#151515"/>
<path d="M40.0052 27.42V20.55C40.6952 21.39 42.1352 22.05 44.0552 22.05C48.2252 22.05 51.1652 18.78 51.1652 14.22C51.1652 9.75 48.5552 6.45 44.2352 6.45C42.1052 6.45 40.4852 7.38 39.8552 8.34V6.81H35.4452V27.42H40.0052ZM46.6952 14.25C46.6952 16.74 45.1052 17.97 43.3052 17.97C41.5352 17.97 39.9452 16.71 39.9452 14.25C39.9452 11.76 41.5352 10.56 43.3052 10.56C45.1052 10.56 46.6952 11.76 46.6952 14.25Z" fill="#151515"/>
<path d="M59.1956 27.45L68.3756 6.81H63.5456L60.2456 14.79L56.6156 6.81H51.5156L57.7856 19.71L54.3956 27.45H59.1956Z" fill="#151515"/>
<path d="M75.0994 21.72V20.04C75.7894 21.18 77.3194 22.05 79.2994 22.05C83.4694 22.05 86.4094 18.78 86.4094 14.22C86.4094 9.75 83.7994 6.45 79.4794 6.45C77.4394 6.45 75.7894 7.29 75.1594 8.22V0H70.6894V21.72H75.0994ZM81.8494 14.25C81.8494 16.74 80.2594 17.97 78.4894 17.97C76.7194 17.97 75.0994 16.71 75.0994 14.25C75.0994 11.73 76.7194 10.56 78.4894 10.56C80.2594 10.56 81.8494 11.73 81.8494 14.25Z" fill="#151515"/>
<path d="M98.9522 21.72H103.332C103.302 21.48 103.182 20.4 103.182 19.05V6.81H98.6222V15.3C98.6222 16.8 97.6622 17.85 96.1322 17.85C94.5122 17.85 93.7322 16.71 93.7322 15.27V6.81H89.1722V16.23C89.1722 19.41 91.2122 22.05 94.8422 22.05C96.3422 22.05 98.0522 21.51 98.8322 20.22C98.8322 20.61 98.8922 21.45 98.9522 21.72Z" fill="#151515"/>
<path d="M121.834 0H117.334V7.98C116.974 7.41 115.864 6.45 113.314 6.45C109.084 6.45 106.084 9.78 106.084 14.22C106.084 18.81 109.264 22.05 113.464 22.05C115.264 22.05 116.764 21.3 117.454 20.28C117.454 20.88 117.544 21.54 117.574 21.72H121.954C121.924 21.39 121.834 20.4 121.834 19.05V0ZM110.674 14.25C110.674 11.76 112.264 10.56 114.034 10.56C115.804 10.56 117.394 11.76 117.394 14.25C117.394 16.71 115.804 17.97 114.034 17.97C112.264 17.97 110.674 16.71 110.674 14.25Z" fill="#151515"/>
<path d="M140.613 0H136.113V7.98C135.753 7.41 134.643 6.45 132.093 6.45C127.863 6.45 124.863 9.78 124.863 14.22C124.863 18.81 128.043 22.05 132.243 22.05C134.043 22.05 135.543 21.3 136.233 20.28C136.233 20.88 136.323 21.54 136.353 21.72H140.733C140.703 21.39 140.613 20.4 140.613 19.05V0ZM129.453 14.25C129.453 11.76 131.043 10.56 132.813 10.56C134.583 10.56 136.173 11.76 136.173 14.25C136.173 16.71 134.583 17.97 132.813 17.97C131.043 17.97 129.453 16.71 129.453 14.25Z" fill="#151515"/>
<path d="M148.48 27.45L157.66 6.81H152.83L149.53 14.79L145.9 6.81H140.8L147.07 19.71L143.68 27.45H148.48Z" fill="#151515"/>
</svg>
