<svg width="606" height="365" viewBox="0 0 606 365" fill="none" xmlns="http://www.w3.org/2000/svg">
<g filter="url(#filter0_d_224_1085)">
<rect x="21" y="21" width="556" height="286" rx="8" fill="#FAFAFA"/>
<path d="M44 61C44 56.5817 47.5817 53 52 53H543C547.418 53 551 56.5817 551 61V97C551 101.418 547.418 105 543 105H52C47.5817 105 44 101.418 44 97V61Z" fill="#E7E5E5"/>
<path d="M85.9399 87.5624L79.4474 81.0699C80.4549 79.7675 80.9999 78.175 80.9999 76.5C80.9999 74.495 80.2174 72.615 78.8024 71.1975C77.3874 69.78 75.5025 69 73.5 69C71.4975 69 69.6125 69.7825 68.1975 71.1975C66.78 72.6125 66 74.495 66 76.5C66 78.5025 66.7825 80.3874 68.1975 81.8024C69.6125 83.2199 71.495 83.9999 73.5 83.9999C75.175 83.9999 76.765 83.4549 78.0674 82.4499L84.5599 88.9399C84.579 88.959 84.6016 88.9741 84.6264 88.9844C84.6513 88.9947 84.678 89 84.7049 89C84.7318 89 84.7585 88.9947 84.7834 88.9844C84.8083 88.9741 84.8309 88.959 84.8499 88.9399L85.9399 87.8524C85.959 87.8334 85.9741 87.8108 85.9844 87.7859C85.9947 87.761 86 87.7343 86 87.7074C86 87.6805 85.9947 87.6538 85.9844 87.6289C85.9741 87.6041 85.959 87.5815 85.9399 87.5624V87.5624ZM77.46 80.46C76.4 81.5174 74.995 82.0999 73.5 82.0999C72.005 82.0999 70.6 81.5174 69.54 80.46C68.4825 79.4 67.9 77.995 67.9 76.5C67.9 75.005 68.4825 73.5975 69.54 72.54C70.6 71.4825 72.005 70.9 73.5 70.9C74.995 70.9 76.4025 71.48 77.46 72.54C78.5174 73.6 79.0999 75.005 79.0999 76.5C79.0999 77.995 78.5174 79.4025 77.46 80.46Z" fill="#151515"/>
<path d="M113.336 85V83.544H108.008V80.072H112.84V78.6H108.008V75.112H113.336V73.656H106.44V85H113.336Z" fill="#151515"/>
<path d="M116.83 85V80.36C116.83 79.208 117.55 78.408 118.622 78.408C119.774 78.408 120.254 79.176 120.254 80.168V85H121.758V80.344C121.758 79.24 122.478 78.408 123.534 78.408C124.67 78.408 125.166 79.16 125.166 80.168V85H126.654V80.008C126.654 77.992 125.342 77.08 123.998 77.08C123.022 77.08 122.03 77.432 121.422 78.536C121.006 77.544 120.078 77.08 119.118 77.08C118.222 77.08 117.262 77.48 116.782 78.328V77.304H115.342V85H116.83Z" fill="#151515"/>
<path d="M130.549 88.04V83.96C130.965 84.648 131.861 85.208 133.045 85.208C135.301 85.208 136.629 83.432 136.629 81.144C136.629 78.904 135.397 77.128 133.093 77.128C131.845 77.128 130.933 77.736 130.517 78.504V77.304H129.061V88.04H130.549ZM135.093 81.144C135.093 82.728 134.213 83.864 132.821 83.864C131.445 83.864 130.533 82.728 130.533 81.144C130.533 79.608 131.445 78.456 132.821 78.456C134.229 78.456 135.093 79.608 135.093 81.144Z" fill="#151515"/>
<path d="M140.483 74.872H139.107V76.12C139.107 76.792 138.755 77.304 137.923 77.304H137.507V78.664H138.979V82.888C138.979 84.28 139.811 85.08 141.123 85.08C141.635 85.08 142.019 84.984 142.147 84.936V83.656C142.019 83.688 141.747 83.72 141.555 83.72C140.771 83.72 140.483 83.368 140.483 82.664V78.664H142.147V77.304H140.483V74.872Z" fill="#151515"/>
<path d="M146.153 88.216L151.161 77.304H149.545L147.241 82.616L144.841 77.304H143.113L146.425 84.152L144.505 88.216H146.153Z" fill="#151515"/>
<path d="M155.888 83C156.016 83.88 156.912 85.24 159.024 85.24C160.928 85.24 161.84 83.944 161.84 82.856C161.84 81.72 161.104 80.872 159.712 80.568L158.464 80.296C157.872 80.168 157.584 79.832 157.584 79.368C157.584 78.84 158.096 78.344 158.864 78.344C160.08 78.344 160.4 79.224 160.464 79.624L161.792 79.128C161.632 78.44 160.976 77.064 158.864 77.064C157.36 77.064 156.128 78.184 156.128 79.496C156.128 80.584 156.848 81.4 158.048 81.656L159.36 81.944C160 82.088 160.352 82.456 160.352 82.936C160.352 83.48 159.888 83.96 159.04 83.96C157.952 83.96 157.344 83.32 157.248 82.52L155.888 83Z" fill="#151515"/>
<path d="M165.858 74.872H164.482V76.12C164.482 76.792 164.13 77.304 163.298 77.304H162.882V78.664H164.354V82.888C164.354 84.28 165.186 85.08 166.498 85.08C167.01 85.08 167.394 84.984 167.522 84.936V83.656C167.394 83.688 167.122 83.72 166.93 83.72C166.146 83.72 165.858 83.368 165.858 82.664V78.664H167.522V77.304H165.858V74.872Z" fill="#151515"/>
<path d="M169.05 82.936C169.05 84.152 170.058 85.24 171.626 85.24C173.002 85.24 173.77 84.504 174.106 83.96C174.106 84.52 174.154 84.808 174.186 85H175.658C175.626 84.808 175.562 84.408 175.562 83.736V79.88C175.562 78.376 174.666 77.064 172.362 77.064C170.698 77.064 169.37 78.088 169.21 79.56L170.65 79.896C170.746 79 171.338 78.344 172.394 78.344C173.562 78.344 174.058 78.968 174.058 79.72C174.058 79.992 173.93 80.232 173.466 80.296L171.386 80.6C170.058 80.792 169.05 81.56 169.05 82.936ZM171.834 83.976C171.066 83.976 170.586 83.432 170.586 82.856C170.586 82.168 171.066 81.8 171.706 81.704L174.058 81.352V81.704C174.058 83.384 173.066 83.976 171.834 83.976Z" fill="#151515"/>
<path d="M179.921 74.872H178.545V76.12C178.545 76.792 178.193 77.304 177.361 77.304H176.945V78.664H178.417V82.888C178.417 84.28 179.249 85.08 180.561 85.08C181.073 85.08 181.457 84.984 181.585 84.936V83.656C181.457 83.688 181.185 83.72 180.993 83.72C180.209 83.72 179.921 83.368 179.921 82.664V78.664H181.585V77.304H179.921V74.872Z" fill="#151515"/>
<path d="M184.49 80.36C184.554 79.368 185.322 78.392 186.586 78.392C187.946 78.392 188.666 79.256 188.698 80.36H184.49ZM188.922 82.36C188.634 83.224 188.01 83.912 186.762 83.912C185.466 83.912 184.474 82.952 184.442 81.576H190.234C190.25 81.48 190.266 81.288 190.266 81.096C190.266 78.696 188.938 77.064 186.57 77.064C184.634 77.064 182.89 78.712 182.89 81.128C182.89 83.736 184.698 85.24 186.762 85.24C188.554 85.24 189.786 84.168 190.218 82.808L188.922 82.36Z" fill="#151515"/>
<path d="M44 123C44 118.582 47.5817 115 52 115H349C353.418 115 357 118.582 357 123V197C357 201.418 353.418 205 349 205H52C47.5817 205 44 201.418 44 197V123Z" fill="white"/>
<path fill-rule="evenodd" clip-rule="evenodd" d="M311.5 174C320.613 174 328 166.613 328 157.5C328 148.387 320.613 141 311.5 141C302.387 141 295 148.387 295 157.5C295 166.613 302.387 174 311.5 174ZM311.5 175C321.165 175 329 167.165 329 157.5C329 147.835 321.165 140 311.5 140C301.835 140 294 147.835 294 157.5C294 167.165 301.835 175 311.5 175Z" fill="#7D7D7D"/>
<path d="M319.569 153.256V164.768H308.067V153.256H319.569ZM319.569 151.977H308.067C307.728 151.977 307.403 152.112 307.163 152.351C306.923 152.591 306.789 152.917 306.789 153.256V164.768C306.789 165.107 306.923 165.432 307.163 165.672C307.403 165.912 307.728 166.047 308.067 166.047H319.569C319.908 166.047 320.233 165.912 320.473 165.672C320.712 165.432 320.847 165.107 320.847 164.768V153.256C320.847 152.917 320.712 152.591 320.473 152.351C320.233 152.112 319.908 151.977 319.569 151.977V151.977Z" fill="#7D7D7D"/>
<path d="M304.231 158.372H302.953V149.419C302.953 149.079 303.088 148.754 303.327 148.514C303.567 148.274 303.892 148.14 304.231 148.14H313.177V149.419H304.231V158.372Z" fill="#7D7D7D"/>
<path d="M73.2962 156H74.9922L70.4802 144.656H68.6722L64.1602 156H65.8402L67.0402 152.832H72.0642L73.2962 156ZM69.5362 146.288L71.5042 151.376H67.6002L69.5362 146.288Z" fill="#151515"/>
<path d="M77.9404 156V144.416H76.4364V156H77.9404Z" fill="#151515"/>
<path d="M82.0029 156V144.416H80.4989V156H82.0029Z" fill="#151515"/>
<path d="M89.4574 152.128C89.4574 150.544 90.3534 149.424 91.7294 149.424C93.1054 149.424 93.9374 150.512 93.9374 152.096C93.9374 153.68 93.0894 154.88 91.7134 154.88C90.2734 154.88 89.4574 153.712 89.4574 152.128ZM93.9534 154.96C93.9534 155.424 94.0014 155.824 94.0334 156H95.4894C95.4734 155.872 95.4094 155.312 95.4094 154.576V144.416H93.9214V149.392C93.6654 148.768 92.9294 148.096 91.5694 148.096C89.3934 148.096 87.9214 149.952 87.9214 152.128C87.9214 154.416 89.3134 156.208 91.5694 156.208C92.7694 156.208 93.5854 155.568 93.9534 154.832V154.96Z" fill="#151515"/>
<path d="M101.264 154.896C99.9837 154.896 98.8637 153.936 98.8637 152.144C98.8637 150.368 99.9837 149.408 101.264 149.408C102.544 149.408 103.664 150.368 103.664 152.144C103.664 153.936 102.544 154.896 101.264 154.896ZM101.264 148.064C98.9597 148.064 97.3277 149.808 97.3277 152.144C97.3277 154.496 98.9597 156.24 101.264 156.24C103.568 156.24 105.2 154.496 105.2 152.144C105.2 149.808 103.568 148.064 101.264 148.064Z" fill="#151515"/>
<path d="M108.628 151.552C108.628 150.384 109.236 149.44 110.42 149.44C111.764 149.44 112.212 150.304 112.212 151.376V156H113.716V151.12C113.716 149.408 112.804 148.08 110.964 148.08C110.068 148.08 109.156 148.448 108.596 149.408V148.304H107.124V156H108.628V151.552Z" fill="#151515"/>
<path d="M117.084 151.36C117.148 150.368 117.916 149.392 119.18 149.392C120.54 149.392 121.26 150.256 121.292 151.36H117.084ZM121.516 153.36C121.228 154.224 120.604 154.912 119.356 154.912C118.06 154.912 117.068 153.952 117.036 152.576H122.828C122.844 152.48 122.86 152.288 122.86 152.096C122.86 149.696 121.532 148.064 119.164 148.064C117.228 148.064 115.484 149.712 115.484 152.128C115.484 154.736 117.292 156.24 119.356 156.24C121.148 156.24 122.38 155.168 122.812 153.808L121.516 153.36Z" fill="#151515"/>
<path d="M126.924 144.656H125.036L125.452 152.752H126.524L126.924 144.656ZM124.94 155.04C124.94 155.616 125.404 156.08 125.98 156.08C126.556 156.08 127.036 155.616 127.036 155.04C127.036 154.464 126.556 153.984 125.98 153.984C125.404 153.984 124.94 154.464 124.94 155.04Z" fill="#151515"/>
<path d="M136.728 152.064V150.752H132.392V152.064H136.728Z" fill="#151515"/>
<path d="M144.816 151.152V156H146.384V151.152L150.384 144.656H148.592L145.648 149.712L142.704 144.656H140.816L144.816 151.152Z" fill="#151515"/>
<path d="M153.686 154.896C152.406 154.896 151.286 153.936 151.286 152.144C151.286 150.368 152.406 149.408 153.686 149.408C154.966 149.408 156.086 150.368 156.086 152.144C156.086 153.936 154.966 154.896 153.686 154.896ZM153.686 148.064C151.382 148.064 149.75 149.808 149.75 152.144C149.75 154.496 151.382 156.24 153.686 156.24C155.99 156.24 157.622 154.496 157.622 152.144C157.622 149.808 155.99 148.064 153.686 148.064Z" fill="#151515"/>
<path d="M164.54 155.072C164.54 155.392 164.572 155.824 164.604 156H166.044C166.012 155.728 165.964 155.184 165.964 154.576V148.304H164.46V152.944C164.46 154.112 163.852 154.912 162.636 154.912C161.372 154.912 160.892 153.984 160.892 152.928V148.304H159.388V153.152C159.388 154.896 160.476 156.24 162.268 156.24C163.164 156.24 164.124 155.872 164.54 155.072Z" fill="#151515"/>
<path d="M172.05 153.936C172.05 155.152 173.058 156.24 174.626 156.24C176.002 156.24 176.77 155.504 177.106 154.96C177.106 155.52 177.154 155.808 177.186 156H178.658C178.626 155.808 178.562 155.408 178.562 154.736V150.88C178.562 149.376 177.666 148.064 175.362 148.064C173.698 148.064 172.37 149.088 172.21 150.56L173.65 150.896C173.746 150 174.338 149.344 175.394 149.344C176.562 149.344 177.058 149.968 177.058 150.72C177.058 150.992 176.93 151.232 176.466 151.296L174.386 151.6C173.058 151.792 172.05 152.56 172.05 153.936ZM174.834 154.976C174.066 154.976 173.586 154.432 173.586 153.856C173.586 153.168 174.066 152.8 174.706 152.704L177.058 152.352V152.704C177.058 154.384 176.066 154.976 174.834 154.976Z" fill="#151515"/>
<path d="M185.177 148.224C185.097 148.208 184.889 148.176 184.681 148.176C183.897 148.176 182.937 148.464 182.377 149.648V148.304H180.905V156H182.409V152.144C182.409 150.448 183.257 149.776 184.521 149.776C184.729 149.776 184.953 149.792 185.177 149.824V148.224Z" fill="#151515"/>
<path d="M187.678 151.36C187.742 150.368 188.51 149.392 189.774 149.392C191.134 149.392 191.854 150.256 191.886 151.36H187.678ZM192.11 153.36C191.822 154.224 191.198 154.912 189.95 154.912C188.654 154.912 187.662 153.952 187.63 152.576H193.422C193.438 152.48 193.454 152.288 193.454 152.096C193.454 149.696 192.126 148.064 189.758 148.064C187.822 148.064 186.078 149.712 186.078 152.128C186.078 154.736 187.886 156.24 189.95 156.24C191.742 156.24 192.974 155.168 193.406 153.808L192.11 153.36Z" fill="#151515"/>
<path d="M198.894 153.936C198.894 155.152 199.902 156.24 201.47 156.24C202.846 156.24 203.614 155.504 203.95 154.96C203.95 155.52 203.998 155.808 204.03 156H205.502C205.47 155.808 205.406 155.408 205.406 154.736V150.88C205.406 149.376 204.51 148.064 202.206 148.064C200.542 148.064 199.214 149.088 199.054 150.56L200.494 150.896C200.59 150 201.182 149.344 202.238 149.344C203.406 149.344 203.902 149.968 203.902 150.72C203.902 150.992 203.774 151.232 203.31 151.296L201.23 151.6C199.902 151.792 198.894 152.56 198.894 153.936ZM201.678 154.976C200.91 154.976 200.43 154.432 200.43 153.856C200.43 153.168 200.91 152.8 201.55 152.704L203.902 152.352V152.704C203.902 154.384 202.91 154.976 201.678 154.976Z" fill="#151515"/>
<path d="M209.253 156V144.416H207.749V156H209.253Z" fill="#151515"/>
<path d="M213.315 156V144.416H211.811V156H213.315Z" fill="#151515"/>
<path d="M223.106 149.456C224.418 149.456 224.978 150.336 225.17 151.088L226.53 150.512C226.21 149.344 225.154 148.064 223.106 148.064C220.914 148.064 219.234 149.744 219.234 152.144C219.234 154.48 220.882 156.24 223.122 156.24C225.122 156.24 226.226 154.944 226.594 153.84L225.266 153.264C225.09 153.872 224.562 154.848 223.122 154.848C221.874 154.848 220.77 153.904 220.77 152.144C220.77 150.352 221.89 149.456 223.106 149.456Z" fill="#151515"/>
<path d="M227.8 153.936C227.8 155.152 228.808 156.24 230.376 156.24C231.752 156.24 232.52 155.504 232.856 154.96C232.856 155.52 232.904 155.808 232.936 156H234.408C234.376 155.808 234.312 155.408 234.312 154.736V150.88C234.312 149.376 233.416 148.064 231.112 148.064C229.448 148.064 228.12 149.088 227.96 150.56L229.4 150.896C229.496 150 230.088 149.344 231.144 149.344C232.312 149.344 232.808 149.968 232.808 150.72C232.808 150.992 232.68 151.232 232.216 151.296L230.136 151.6C228.808 151.792 227.8 152.56 227.8 153.936ZM230.584 154.976C229.816 154.976 229.336 154.432 229.336 153.856C229.336 153.168 229.816 152.8 230.456 152.704L232.808 152.352V152.704C232.808 154.384 231.816 154.976 230.584 154.976Z" fill="#151515"/>
<path d="M241.571 155.072C241.571 155.392 241.603 155.824 241.635 156H243.075C243.043 155.728 242.995 155.184 242.995 154.576V148.304H241.491V152.944C241.491 154.112 240.883 154.912 239.667 154.912C238.403 154.912 237.923 153.984 237.923 152.928V148.304H236.419V153.152C236.419 154.896 237.507 156.24 239.299 156.24C240.195 156.24 241.155 155.872 241.571 155.072Z" fill="#151515"/>
<path d="M244.923 156.416C245.115 158.064 246.555 159.28 248.475 159.28C251.371 159.28 252.331 157.376 252.331 155.424V148.304H250.843V149.376C250.459 148.608 249.659 148.16 248.475 148.16C246.363 148.16 244.939 149.824 244.939 151.904C244.939 154.08 246.427 155.632 248.475 155.632C249.627 155.632 250.459 155.072 250.827 154.368V155.472C250.827 157.136 250.091 157.968 248.475 157.968C247.307 157.968 246.491 157.152 246.379 156.08L244.923 156.416ZM248.699 154.368C247.339 154.368 246.475 153.408 246.475 151.904C246.475 150.416 247.371 149.44 248.699 149.44C249.995 149.44 250.891 150.416 250.891 151.904C250.891 153.392 249.995 154.368 248.699 154.368Z" fill="#151515"/>
<path d="M256.237 151.472C256.269 150.336 256.877 149.44 258.029 149.44C259.373 149.44 259.821 150.304 259.821 151.376V156H261.325V151.12C261.325 149.408 260.413 148.08 258.573 148.08C257.693 148.08 256.797 148.384 256.237 149.2V144.416H254.733V156H256.237V151.472Z" fill="#151515"/>
<path d="M265.734 145.872H264.358V147.12C264.358 147.792 264.006 148.304 263.174 148.304H262.758V149.664H264.23V153.888C264.23 155.28 265.062 156.08 266.374 156.08C266.886 156.08 267.27 155.984 267.398 155.936V154.656C267.27 154.688 266.998 154.72 266.806 154.72C266.022 154.72 265.734 154.368 265.734 153.664V149.664H267.398V148.304H265.734V145.872Z" fill="#151515"/>
<path d="M70.3522 175.072C70.3522 175.392 70.3842 175.824 70.4162 176H71.8562C71.8242 175.728 71.7762 175.184 71.7762 174.576V168.304H70.2722V172.944C70.2722 174.112 69.6642 174.912 68.4482 174.912C67.1842 174.912 66.7042 173.984 66.7042 172.928V168.304H65.2002V173.152C65.2002 174.896 66.2882 176.24 68.0802 176.24C68.9762 176.24 69.9362 175.872 70.3522 175.072Z" fill="#151515"/>
<path d="M75.8307 179.04V174.96C76.2467 175.648 77.1427 176.208 78.3267 176.208C80.5827 176.208 81.9107 174.432 81.9107 172.144C81.9107 169.904 80.6787 168.128 78.3747 168.128C77.1267 168.128 76.2147 168.736 75.7987 169.504V168.304H74.3427V179.04H75.8307ZM80.3747 172.144C80.3747 173.728 79.4947 174.864 78.1027 174.864C76.7267 174.864 75.8147 173.728 75.8147 172.144C75.8147 170.608 76.7267 169.456 78.1027 169.456C79.5107 169.456 80.3747 170.608 80.3747 172.144Z" fill="#151515"/>
<path d="M249 205C249 200.582 252.582 197 257 197H554C558.418 197 562 200.582 562 205V328C562 332.418 558.418 336 554 336H257C252.582 336 249 332.418 249 328V205Z" fill="#D87342"/>
<path fill-rule="evenodd" clip-rule="evenodd" d="M516.5 256C525.613 256 533 248.613 533 239.5C533 230.387 525.613 223 516.5 223C507.387 223 500 230.387 500 239.5C500 248.613 507.387 256 516.5 256ZM516.5 257C526.165 257 534 249.165 534 239.5C534 229.835 526.165 222 516.5 222C506.835 222 499 229.835 499 239.5C499 249.165 506.835 257 516.5 257Z" fill="white"/>
<path d="M524.569 235.256V246.768H513.067V235.256H524.569ZM524.569 233.977H513.067C512.728 233.977 512.403 234.112 512.163 234.351C511.923 234.591 511.789 234.917 511.789 235.256V246.768C511.789 247.107 511.923 247.432 512.163 247.672C512.403 247.912 512.728 248.047 513.067 248.047H524.569C524.908 248.047 525.233 247.912 525.473 247.672C525.712 247.432 525.847 247.107 525.847 246.768V235.256C525.847 234.917 525.712 234.591 525.473 234.351C525.233 234.112 524.908 233.977 524.569 233.977V233.977Z" fill="white"/>
<path d="M509.231 240.372H507.953V231.419C507.953 231.079 508.088 230.754 508.327 230.514C508.567 230.274 508.892 230.14 509.231 230.14H518.177V231.419H509.231V240.372Z" fill="white"/>
<path d="M277.672 229.232C277.416 228 276.392 226.416 273.832 226.416C271.736 226.416 270.088 228.016 270.088 229.792C270.088 231.488 271.24 232.544 272.856 232.896L274.472 233.248C275.608 233.488 276.168 234.192 276.168 235.008C276.168 236 275.4 236.816 273.832 236.816C272.12 236.816 271.224 235.648 271.112 234.384L269.608 234.864C269.816 236.48 271.112 238.24 273.848 238.24C276.264 238.24 277.768 236.64 277.768 234.88C277.768 233.296 276.712 232.112 274.824 231.696L273.128 231.328C272.168 231.12 271.672 230.496 271.672 229.68C271.672 228.624 272.584 227.792 273.864 227.792C275.448 227.792 276.136 228.912 276.264 229.728L277.672 229.232Z" fill="white"/>
<path d="M282.904 236.896C281.624 236.896 280.504 235.936 280.504 234.144C280.504 232.368 281.624 231.408 282.904 231.408C284.184 231.408 285.304 232.368 285.304 234.144C285.304 235.936 284.184 236.896 282.904 236.896ZM282.904 230.064C280.6 230.064 278.968 231.808 278.968 234.144C278.968 236.496 280.6 238.24 282.904 238.24C285.208 238.24 286.84 236.496 286.84 234.144C286.84 231.808 285.208 230.064 282.904 230.064Z" fill="white"/>
<path d="M288.37 236.976C288.37 237.664 288.85 238.064 289.442 238.064C289.618 238.064 289.746 238.016 289.794 237.984C289.778 238.752 289.25 239.536 288.466 239.712V240.544C289.458 240.416 290.834 239.536 290.834 237.424C290.834 236.416 290.226 235.904 289.538 235.904C288.866 235.904 288.37 236.4 288.37 236.976Z" fill="white"/>
<path d="M298.721 238V230.304H297.233V238H298.721ZM296.897 227.392C296.897 227.984 297.377 228.464 297.969 228.464C298.577 228.464 299.057 227.984 299.057 227.392C299.057 226.784 298.577 226.304 297.969 226.304C297.377 226.304 296.897 226.784 296.897 227.392Z" fill="white"/>
<path d="M303.296 227.872H301.92V229.12C301.92 229.792 301.568 230.304 300.736 230.304H300.32V231.664H301.792V235.888C301.792 237.28 302.624 238.08 303.936 238.08C304.448 238.08 304.832 237.984 304.96 237.936V236.656C304.832 236.688 304.56 236.72 304.368 236.72C303.584 236.72 303.296 236.368 303.296 235.664V231.664H304.96V230.304H303.296V227.872Z" fill="white"/>
<path d="M312.472 238V226.416H310.968V238H312.472Z" fill="white"/>
<path d="M318.326 236.896C317.046 236.896 315.926 235.936 315.926 234.144C315.926 232.368 317.046 231.408 318.326 231.408C319.606 231.408 320.726 232.368 320.726 234.144C320.726 235.936 319.606 236.896 318.326 236.896ZM318.326 230.064C316.022 230.064 314.39 231.808 314.39 234.144C314.39 236.496 316.022 238.24 318.326 238.24C320.63 238.24 322.262 236.496 322.262 234.144C322.262 231.808 320.63 230.064 318.326 230.064Z" fill="white"/>
<path d="M327.482 236.896C326.202 236.896 325.082 235.936 325.082 234.144C325.082 232.368 326.202 231.408 327.482 231.408C328.762 231.408 329.882 232.368 329.882 234.144C329.882 235.936 328.762 236.896 327.482 236.896ZM327.482 230.064C325.178 230.064 323.546 231.808 323.546 234.144C323.546 236.496 325.178 238.24 327.482 238.24C329.786 238.24 331.418 236.496 331.418 234.144C331.418 231.808 329.786 230.064 327.482 230.064Z" fill="white"/>
<path d="M340.239 230.304H338.159L334.831 233.712V226.416H333.343V238H334.831V235.68L335.903 234.608L338.415 238H340.303L336.959 233.552L340.239 230.304Z" fill="white"/>
<path d="M341.029 236C341.157 236.88 342.053 238.24 344.165 238.24C346.069 238.24 346.981 236.944 346.981 235.856C346.981 234.72 346.245 233.872 344.853 233.568L343.605 233.296C343.013 233.168 342.725 232.832 342.725 232.368C342.725 231.84 343.237 231.344 344.005 231.344C345.221 231.344 345.541 232.224 345.605 232.624L346.933 232.128C346.773 231.44 346.117 230.064 344.005 230.064C342.501 230.064 341.269 231.184 341.269 232.496C341.269 233.584 341.989 234.4 343.189 234.656L344.501 234.944C345.141 235.088 345.493 235.456 345.493 235.936C345.493 236.48 345.029 236.96 344.181 236.96C343.093 236.96 342.485 236.32 342.389 235.52L341.029 236Z" fill="white"/>
<path d="M354.487 238V226.416H352.983V238H354.487Z" fill="white"/>
<path d="M358.534 238V230.304H357.046V238H358.534ZM356.71 227.392C356.71 227.984 357.19 228.464 357.782 228.464C358.39 228.464 358.87 227.984 358.87 227.392C358.87 226.784 358.39 226.304 357.782 226.304C357.19 226.304 356.71 226.784 356.71 227.392Z" fill="white"/>
<path d="M367.989 230.304H365.909L362.581 233.712V226.416H361.093V238H362.581V235.68L363.653 234.608L366.165 238H368.053L364.709 233.552L367.989 230.304Z" fill="white"/>
<path d="M370.069 233.36C370.133 232.368 370.901 231.392 372.165 231.392C373.525 231.392 374.245 232.256 374.277 233.36H370.069ZM374.501 235.36C374.213 236.224 373.589 236.912 372.341 236.912C371.045 236.912 370.053 235.952 370.021 234.576H375.813C375.829 234.48 375.845 234.288 375.845 234.096C375.845 231.696 374.517 230.064 372.149 230.064C370.213 230.064 368.469 231.712 368.469 234.128C368.469 236.736 370.277 238.24 372.341 238.24C374.133 238.24 375.365 237.168 375.797 235.808L374.501 235.36Z" fill="white"/>
<path d="M383.685 241.216L388.693 230.304H387.077L384.773 235.616L382.373 230.304H380.645L383.957 237.152L382.037 241.216H383.685Z" fill="white"/>
<path d="M393.123 236.896C391.843 236.896 390.723 235.936 390.723 234.144C390.723 232.368 391.843 231.408 393.123 231.408C394.403 231.408 395.523 232.368 395.523 234.144C395.523 235.936 394.403 236.896 393.123 236.896ZM393.123 230.064C390.819 230.064 389.187 231.808 389.187 234.144C389.187 236.496 390.819 238.24 393.123 238.24C395.427 238.24 397.059 236.496 397.059 234.144C397.059 231.808 395.427 230.064 393.123 230.064Z" fill="white"/>
<path d="M403.977 237.072C403.977 237.392 404.009 237.824 404.041 238H405.481C405.449 237.728 405.401 237.184 405.401 236.576V230.304H403.897V234.944C403.897 236.112 403.289 236.912 402.073 236.912C400.809 236.912 400.329 235.984 400.329 234.928V230.304H398.825V235.152C398.825 236.896 399.913 238.24 401.705 238.24C402.601 238.24 403.561 237.872 403.977 237.072Z" fill="white"/>
<path d="M412.24 230.224C412.16 230.208 411.952 230.176 411.744 230.176C410.96 230.176 410 230.464 409.44 231.648V230.304H407.968V238H409.472V234.144C409.472 232.448 410.32 231.776 411.584 231.776C411.792 231.776 412.016 231.792 412.24 231.824V230.224Z" fill="white"/>
<path d="M419.347 238V226.416H417.843V238H419.347Z" fill="white"/>
<path d="M423.393 238V230.304H421.905V238H423.393ZM421.569 227.392C421.569 227.984 422.049 228.464 422.641 228.464C423.249 228.464 423.729 227.984 423.729 227.392C423.729 226.784 423.249 226.304 422.641 226.304C422.049 226.304 421.569 226.784 421.569 227.392Z" fill="white"/>
<path d="M425.232 236C425.36 236.88 426.256 238.24 428.368 238.24C430.272 238.24 431.184 236.944 431.184 235.856C431.184 234.72 430.448 233.872 429.056 233.568L427.808 233.296C427.216 233.168 426.928 232.832 426.928 232.368C426.928 231.84 427.44 231.344 428.208 231.344C429.424 231.344 429.744 232.224 429.808 232.624L431.136 232.128C430.976 231.44 430.32 230.064 428.208 230.064C426.704 230.064 425.472 231.184 425.472 232.496C425.472 233.584 426.192 234.4 427.392 234.656L428.704 234.944C429.344 235.088 429.696 235.456 429.696 235.936C429.696 236.48 429.232 236.96 428.384 236.96C427.296 236.96 426.688 236.32 426.592 235.52L425.232 236Z" fill="white"/>
<path d="M435.202 227.872H433.826V229.12C433.826 229.792 433.474 230.304 432.642 230.304H432.226V231.664H433.698V235.888C433.698 237.28 434.53 238.08 435.842 238.08C436.354 238.08 436.738 237.984 436.866 237.936V236.656C436.738 236.688 436.466 236.72 436.274 236.72C435.49 236.72 435.202 236.368 435.202 235.664V231.664H436.866V230.304H435.202V227.872Z" fill="white"/>
<path d="M446.17 236.896C444.89 236.896 443.77 235.936 443.77 234.144C443.77 232.368 444.89 231.408 446.17 231.408C447.45 231.408 448.57 232.368 448.57 234.144C448.57 235.936 447.45 236.896 446.17 236.896ZM446.17 230.064C443.866 230.064 442.234 231.808 442.234 234.144C442.234 236.496 443.866 238.24 446.17 238.24C448.474 238.24 450.106 236.496 450.106 234.144C450.106 231.808 448.474 230.064 446.17 230.064Z" fill="white"/>
<path d="M455.902 231.664V230.304H454.046V229.088C454.046 228.032 454.734 227.776 455.262 227.776C455.646 227.776 455.838 227.84 455.918 227.872V226.528C455.854 226.48 455.534 226.368 455.022 226.368C453.63 226.368 452.494 227.296 452.494 229.008V230.304H451.07V231.664H452.494V238H454.046V231.664H455.902Z" fill="white"/>
<path d="M273.528 260.368V259.168H271.752V246.656H273.528V245.44H270.44V260.368H273.528Z" fill="white"/>
<path d="M276.378 258V250.304H274.89V258H276.378ZM274.554 247.392C274.554 247.984 275.034 248.464 275.626 248.464C276.234 248.464 276.714 247.984 276.714 247.392C276.714 246.784 276.234 246.304 275.626 246.304C275.034 246.304 274.554 246.784 274.554 247.392Z" fill="white"/>
<path d="M280.952 247.872H279.576V249.12C279.576 249.792 279.224 250.304 278.392 250.304H277.976V251.664H279.448V255.888C279.448 257.28 280.28 258.08 281.592 258.08C282.104 258.08 282.488 257.984 282.616 257.936V256.656C282.488 256.688 282.216 256.72 282.024 256.72C281.24 256.72 280.952 256.368 280.952 255.664V251.664H282.616V250.304H280.952V247.872Z" fill="white"/>
<path d="M285.522 253.36C285.586 252.368 286.354 251.392 287.618 251.392C288.978 251.392 289.698 252.256 289.73 253.36H285.522ZM289.954 255.36C289.666 256.224 289.042 256.912 287.794 256.912C286.498 256.912 285.506 255.952 285.474 254.576H291.266C291.282 254.48 291.298 254.288 291.298 254.096C291.298 251.696 289.97 250.064 287.602 250.064C285.666 250.064 283.922 251.712 283.922 254.128C283.922 256.736 285.73 258.24 287.794 258.24C289.586 258.24 290.818 257.168 291.25 255.808L289.954 255.36Z" fill="white"/>
<path d="M294.706 258V253.36C294.706 252.208 295.426 251.408 296.498 251.408C297.65 251.408 298.13 252.176 298.13 253.168V258H299.634V253.344C299.634 252.24 300.354 251.408 301.41 251.408C302.546 251.408 303.042 252.16 303.042 253.168V258H304.53V253.008C304.53 250.992 303.218 250.08 301.874 250.08C300.898 250.08 299.906 250.432 299.298 251.536C298.882 250.544 297.954 250.08 296.994 250.08C296.098 250.08 295.138 250.48 294.658 251.328V250.304H293.218V258H294.706Z" fill="white"/>
<path d="M306.216 256C306.344 256.88 307.24 258.24 309.352 258.24C311.256 258.24 312.168 256.944 312.168 255.856C312.168 254.72 311.432 253.872 310.04 253.568L308.792 253.296C308.2 253.168 307.912 252.832 307.912 252.368C307.912 251.84 308.424 251.344 309.192 251.344C310.408 251.344 310.728 252.224 310.792 252.624L312.12 252.128C311.96 251.44 311.304 250.064 309.192 250.064C307.688 250.064 306.456 251.184 306.456 252.496C306.456 253.584 307.176 254.4 308.376 254.656L309.688 254.944C310.328 255.088 310.68 255.456 310.68 255.936C310.68 256.48 310.216 256.96 309.368 256.96C308.28 256.96 307.672 256.32 307.576 255.52L306.216 256Z" fill="white"/>
<path d="M316.059 260.368V245.44H312.971V246.656H314.747V259.168H312.971V260.368H316.059Z" fill="white"/>
<path d="M324.268 258V250.304H322.78V258H324.268ZM322.444 247.392C322.444 247.984 322.924 248.464 323.516 248.464C324.124 248.464 324.604 247.984 324.604 247.392C324.604 246.784 324.124 246.304 323.516 246.304C322.924 246.304 322.444 246.784 322.444 247.392Z" fill="white"/>
<path d="M326.107 256C326.235 256.88 327.131 258.24 329.243 258.24C331.147 258.24 332.059 256.944 332.059 255.856C332.059 254.72 331.323 253.872 329.931 253.568L328.683 253.296C328.091 253.168 327.803 252.832 327.803 252.368C327.803 251.84 328.315 251.344 329.083 251.344C330.299 251.344 330.619 252.224 330.683 252.624L332.011 252.128C331.851 251.44 331.195 250.064 329.083 250.064C327.579 250.064 326.347 251.184 326.347 252.496C326.347 253.584 327.067 254.4 328.267 254.656L329.579 254.944C330.219 255.088 330.571 255.456 330.571 255.936C330.571 256.48 330.107 256.96 329.259 256.96C328.171 256.96 327.563 256.32 327.467 255.52L326.107 256Z" fill="white"/>
<path d="M339.037 253.36C339.101 252.368 339.869 251.392 341.133 251.392C342.493 251.392 343.213 252.256 343.245 253.36H339.037ZM343.469 255.36C343.181 256.224 342.557 256.912 341.309 256.912C340.013 256.912 339.021 255.952 338.989 254.576H344.781C344.797 254.48 344.813 254.288 344.813 254.096C344.813 251.696 343.485 250.064 341.117 250.064C339.181 250.064 337.437 251.712 337.437 254.128C337.437 256.736 339.245 258.24 341.309 258.24C343.101 258.24 344.333 257.168 344.765 255.808L343.469 255.36Z" fill="white"/>
<path d="M348.221 258V253.36C348.221 252.208 348.941 251.408 350.013 251.408C351.165 251.408 351.645 252.176 351.645 253.168V258H353.149V253.344C353.149 252.24 353.869 251.408 354.925 251.408C356.061 251.408 356.557 252.16 356.557 253.168V258H358.045V253.008C358.045 250.992 356.733 250.08 355.389 250.08C354.413 250.08 353.421 250.432 352.813 251.536C352.397 250.544 351.469 250.08 350.509 250.08C349.613 250.08 348.653 250.48 348.173 251.328V250.304H346.733V258H348.221Z" fill="white"/>
<path d="M361.94 261.04V256.96C362.356 257.648 363.252 258.208 364.436 258.208C366.692 258.208 368.02 256.432 368.02 254.144C368.02 251.904 366.788 250.128 364.484 250.128C363.236 250.128 362.324 250.736 361.908 251.504V250.304H360.452V261.04H361.94ZM366.484 254.144C366.484 255.728 365.604 256.864 364.212 256.864C362.836 256.864 361.924 255.728 361.924 254.144C361.924 252.608 362.836 251.456 364.212 251.456C365.62 251.456 366.484 252.608 366.484 254.144Z" fill="white"/>
<path d="M371.874 247.872H370.498V249.12C370.498 249.792 370.146 250.304 369.314 250.304H368.898V251.664H370.37V255.888C370.37 257.28 371.202 258.08 372.514 258.08C373.026 258.08 373.41 257.984 373.538 257.936V256.656C373.41 256.688 373.138 256.72 372.946 256.72C372.162 256.72 371.874 256.368 371.874 255.664V251.664H373.538V250.304H371.874V247.872Z" fill="white"/>
<path d="M377.544 261.216L382.552 250.304H380.936L378.632 255.616L376.232 250.304H374.504L377.816 257.152L375.896 261.216H377.544Z" fill="white"/>
<path d="M382.073 256.976C382.073 257.6 382.553 258.08 383.177 258.08C383.801 258.08 384.297 257.6 384.297 256.976C384.297 256.352 383.801 255.856 383.177 255.856C382.553 255.856 382.073 256.352 382.073 256.976Z" fill="white"/>
<path d="M390.862 246.656V258H394.83C396.91 258 398.334 256.704 398.334 254.912C398.334 253.648 397.582 252.496 396.286 252.176C397.278 251.808 397.982 250.944 397.982 249.728C397.982 247.936 396.718 246.656 394.558 246.656H390.862ZM392.43 251.616V248.032H394.318C395.614 248.032 396.398 248.736 396.398 249.808C396.398 250.864 395.646 251.616 394.382 251.616H392.43ZM392.43 256.624V252.96H394.67C396.046 252.96 396.734 253.728 396.734 254.816C396.734 255.92 395.87 256.624 394.606 256.624H392.43Z" fill="white"/>
<path d="M405.087 257.072C405.087 257.392 405.119 257.824 405.151 258H406.591C406.559 257.728 406.511 257.184 406.511 256.576V250.304H405.007V254.944C405.007 256.112 404.399 256.912 403.183 256.912C401.919 256.912 401.439 255.984 401.439 254.928V250.304H399.935V255.152C399.935 256.896 401.023 258.24 402.815 258.24C403.711 258.24 404.671 257.872 405.087 257.072Z" fill="white"/>
<path d="M411.093 247.872H409.717V249.12C409.717 249.792 409.365 250.304 408.533 250.304H408.117V251.664H409.589V255.888C409.589 257.28 410.421 258.08 411.733 258.08C412.245 258.08 412.629 257.984 412.757 257.936V256.656C412.629 256.688 412.357 256.72 412.165 256.72C411.381 256.72 411.093 256.368 411.093 255.664V251.664H412.757V250.304H411.093V247.872Z" fill="white"/>
<path d="M419.661 254.128C419.661 252.544 420.557 251.424 421.933 251.424C423.309 251.424 424.141 252.512 424.141 254.096C424.141 255.68 423.293 256.88 421.917 256.88C420.477 256.88 419.661 255.712 419.661 254.128ZM424.157 256.96C424.157 257.424 424.205 257.824 424.237 258H425.693C425.677 257.872 425.613 257.312 425.613 256.576V246.416H424.125V251.392C423.869 250.768 423.133 250.096 421.773 250.096C419.597 250.096 418.125 251.952 418.125 254.128C418.125 256.416 419.517 258.208 421.773 258.208C422.973 258.208 423.789 257.568 424.157 256.832V256.96Z" fill="white"/>
<path d="M431.467 256.896C430.187 256.896 429.067 255.936 429.067 254.144C429.067 252.368 430.187 251.408 431.467 251.408C432.747 251.408 433.867 252.368 433.867 254.144C433.867 255.936 432.747 256.896 431.467 256.896ZM431.467 250.064C429.163 250.064 427.531 251.808 427.531 254.144C427.531 256.496 429.163 258.24 431.467 258.24C433.771 258.24 435.403 256.496 435.403 254.144C435.403 251.808 433.771 250.064 431.467 250.064Z" fill="white"/>
<path d="M438.831 253.552C438.831 252.384 439.439 251.44 440.623 251.44C441.967 251.44 442.415 252.304 442.415 253.376V258H443.919V253.12C443.919 251.408 443.007 250.08 441.167 250.08C440.271 250.08 439.359 250.448 438.799 251.408V250.304H437.327V258H438.831V253.552Z" fill="white"/>
<path d="M445.671 248.416C445.671 248.496 445.687 248.64 445.703 248.72L446.359 251.712H446.903L447.575 248.704C447.591 248.624 447.607 248.512 447.607 248.416C447.607 247.84 447.207 247.44 446.647 247.44C446.071 247.44 445.671 247.84 445.671 248.416Z" fill="white"/>
<path d="M451.546 247.872H450.17V249.12C450.17 249.792 449.818 250.304 448.986 250.304H448.57V251.664H450.042V255.888C450.042 257.28 450.874 258.08 452.186 258.08C452.698 258.08 453.082 257.984 453.21 257.936V256.656C453.082 256.688 452.81 256.72 452.618 256.72C451.834 256.72 451.546 256.368 451.546 255.664V251.664H453.21V250.304H451.546V247.872Z" fill="white"/>
<path d="M274.152 271.664V270.304H272.296V269.088C272.296 268.032 272.984 267.776 273.512 267.776C273.896 267.776 274.088 267.84 274.168 267.872V266.528C274.104 266.48 273.784 266.368 273.272 266.368C271.88 266.368 270.744 267.296 270.744 269.008V270.304H269.32V271.664H270.744V278H272.296V271.664H274.152Z" fill="white"/>
<path d="M280.037 270.224C279.957 270.208 279.749 270.176 279.541 270.176C278.757 270.176 277.797 270.464 277.237 271.648V270.304H275.765V278H277.269V274.144C277.269 272.448 278.117 271.776 279.381 271.776C279.589 271.776 279.813 271.792 280.037 271.824V270.224Z" fill="white"/>
<path d="M282.537 273.36C282.601 272.368 283.369 271.392 284.633 271.392C285.993 271.392 286.713 272.256 286.745 273.36H282.537ZM286.969 275.36C286.681 276.224 286.057 276.912 284.809 276.912C283.513 276.912 282.521 275.952 282.489 274.576H288.281C288.297 274.48 288.313 274.288 288.313 274.096C288.313 271.696 286.985 270.064 284.617 270.064C282.681 270.064 280.937 271.712 280.937 274.128C280.937 276.736 282.745 278.24 284.809 278.24C286.601 278.24 287.833 277.168 288.265 275.808L286.969 275.36Z" fill="white"/>
<path d="M292.249 267.872H290.873V269.12C290.873 269.792 290.521 270.304 289.689 270.304H289.273V271.664H290.745V275.888C290.745 277.28 291.577 278.08 292.889 278.08C293.401 278.08 293.785 277.984 293.913 277.936V276.656C293.785 276.688 293.513 276.72 293.321 276.72C292.537 276.72 292.249 276.368 292.249 275.664V271.664H293.913V270.304H292.249V267.872Z" fill="white"/>
<path d="M295.761 276.976C295.761 277.664 296.241 278.064 296.833 278.064C297.009 278.064 297.137 278.016 297.185 277.984C297.169 278.752 296.641 279.536 295.857 279.712V280.544C296.849 280.416 298.225 279.536 298.225 277.424C298.225 276.416 297.617 275.904 296.929 275.904C296.257 275.904 295.761 276.4 295.761 276.976Z" fill="white"/>
<path d="M304.624 278.832C304.624 279.536 304.368 279.952 303.584 279.952C303.36 279.952 303.184 279.92 303.104 279.904V281.168C303.2 281.2 303.424 281.28 304 281.28C305.328 281.28 306.128 280.288 306.128 278.896V270.304H304.624V278.832ZM304.288 267.36C304.288 267.952 304.768 268.432 305.36 268.432C305.968 268.432 306.448 267.952 306.448 267.36C306.448 266.752 305.968 266.272 305.36 266.272C304.768 266.272 304.288 266.752 304.288 267.36Z" fill="white"/>
<path d="M313.758 277.072C313.758 277.392 313.79 277.824 313.822 278H315.262C315.23 277.728 315.182 277.184 315.182 276.576V270.304H313.678V274.944C313.678 276.112 313.07 276.912 311.854 276.912C310.59 276.912 310.11 275.984 310.11 274.928V270.304H308.606V275.152C308.606 276.896 309.694 278.24 311.486 278.24C312.382 278.24 313.342 277.872 313.758 277.072Z" fill="white"/>
<path d="M317.029 276C317.157 276.88 318.053 278.24 320.165 278.24C322.069 278.24 322.981 276.944 322.981 275.856C322.981 274.72 322.245 273.872 320.853 273.568L319.605 273.296C319.013 273.168 318.725 272.832 318.725 272.368C318.725 271.84 319.237 271.344 320.005 271.344C321.221 271.344 321.541 272.224 321.605 272.624L322.933 272.128C322.773 271.44 322.117 270.064 320.005 270.064C318.501 270.064 317.269 271.184 317.269 272.496C317.269 273.584 317.989 274.4 319.189 274.656L320.501 274.944C321.141 275.088 321.493 275.456 321.493 275.936C321.493 276.48 321.029 276.96 320.181 276.96C319.093 276.96 318.485 276.32 318.389 275.52L317.029 276Z" fill="white"/>
<path d="M326.999 267.872H325.623V269.12C325.623 269.792 325.271 270.304 324.439 270.304H324.023V271.664H325.495V275.888C325.495 277.28 326.327 278.08 327.639 278.08C328.151 278.08 328.535 277.984 328.663 277.936V276.656C328.535 276.688 328.263 276.72 328.071 276.72C327.287 276.72 326.999 276.368 326.999 275.664V271.664H328.663V270.304H326.999V267.872Z" fill="white"/>
<path d="M337.903 271.456C339.215 271.456 339.775 272.336 339.967 273.088L341.327 272.512C341.007 271.344 339.951 270.064 337.903 270.064C335.711 270.064 334.031 271.744 334.031 274.144C334.031 276.48 335.679 278.24 337.919 278.24C339.919 278.24 341.023 276.944 341.391 275.84L340.063 275.264C339.887 275.872 339.359 276.848 337.919 276.848C336.671 276.848 335.567 275.904 335.567 274.144C335.567 272.352 336.687 271.456 337.903 271.456Z" fill="white"/>
<path d="M344.659 278V266.416H343.155V278H344.659Z" fill="white"/>
<path d="M348.706 278V270.304H347.218V278H348.706ZM346.882 267.392C346.882 267.984 347.362 268.464 347.954 268.464C348.562 268.464 349.042 267.984 349.042 267.392C349.042 266.784 348.562 266.304 347.954 266.304C347.362 266.304 346.882 266.784 346.882 267.392Z" fill="white"/>
<path d="M354.497 271.456C355.809 271.456 356.369 272.336 356.561 273.088L357.921 272.512C357.601 271.344 356.545 270.064 354.497 270.064C352.305 270.064 350.625 271.744 350.625 274.144C350.625 276.48 352.273 278.24 354.513 278.24C356.513 278.24 357.617 276.944 357.985 275.84L356.657 275.264C356.481 275.872 355.953 276.848 354.513 276.848C353.265 276.848 352.161 275.904 352.161 274.144C352.161 272.352 353.281 271.456 354.497 271.456Z" fill="white"/>
<path d="M366.645 270.304H364.565L361.237 273.712V266.416H359.749V278H361.237V275.68L362.309 274.608L364.821 278H366.709L363.365 273.552L366.645 270.304Z" fill="white"/>
<path d="M374.171 267.872H372.795V269.12C372.795 269.792 372.443 270.304 371.611 270.304H371.195V271.664H372.667V275.888C372.667 277.28 373.499 278.08 374.811 278.08C375.323 278.08 375.707 277.984 375.835 277.936V276.656C375.707 276.688 375.435 276.72 375.243 276.72C374.459 276.72 374.171 276.368 374.171 275.664V271.664H375.835V270.304H374.171V267.872Z" fill="white"/>
<path d="M379.347 273.472C379.379 272.336 379.987 271.44 381.139 271.44C382.483 271.44 382.931 272.304 382.931 273.376V278H384.435V273.12C384.435 271.408 383.523 270.08 381.683 270.08C380.803 270.08 379.907 270.384 379.347 271.2V266.416H377.843V278H379.347V273.472Z" fill="white"/>
<path d="M386.347 275.936C386.347 277.152 387.355 278.24 388.923 278.24C390.299 278.24 391.067 277.504 391.403 276.96C391.403 277.52 391.451 277.808 391.483 278H392.955C392.923 277.808 392.859 277.408 392.859 276.736V272.88C392.859 271.376 391.963 270.064 389.659 270.064C387.995 270.064 386.667 271.088 386.507 272.56L387.947 272.896C388.043 272 388.635 271.344 389.691 271.344C390.859 271.344 391.355 271.968 391.355 272.72C391.355 272.992 391.227 273.232 390.763 273.296L388.683 273.6C387.355 273.792 386.347 274.56 386.347 275.936ZM389.131 276.976C388.363 276.976 387.883 276.432 387.883 275.856C387.883 275.168 388.363 274.8 389.003 274.704L391.355 274.352V274.704C391.355 276.384 390.363 276.976 389.131 276.976Z" fill="white"/>
<path d="M397.218 267.872H395.842V269.12C395.842 269.792 395.49 270.304 394.658 270.304H394.242V271.664H395.714V275.888C395.714 277.28 396.546 278.08 397.858 278.08C398.37 278.08 398.754 277.984 398.882 277.936V276.656C398.754 276.688 398.482 276.72 398.29 276.72C397.506 276.72 397.218 276.368 397.218 275.664V271.664H398.882V270.304H397.218V267.872Z" fill="white"/>
<path d="M406.378 278V276.88C406.858 277.712 407.738 278.208 408.874 278.208C411.162 278.208 412.458 276.4 412.458 274.112C412.458 271.872 411.258 270.08 408.922 270.08C407.642 270.08 406.746 270.704 406.378 271.392V266.416H404.89V278H406.378ZM410.922 274.112C410.922 275.776 410.026 276.864 408.65 276.864C407.322 276.864 406.362 275.776 406.362 274.112C406.362 272.448 407.322 271.408 408.65 271.408C410.042 271.408 410.922 272.448 410.922 274.112Z" fill="white"/>
<path d="M419.368 277.072C419.368 277.392 419.4 277.824 419.432 278H420.872C420.84 277.728 420.792 277.184 420.792 276.576V270.304H419.288V274.944C419.288 276.112 418.68 276.912 417.464 276.912C416.2 276.912 415.72 275.984 415.72 274.928V270.304H414.216V275.152C414.216 276.896 415.304 278.24 417.096 278.24C417.992 278.24 418.952 277.872 419.368 277.072Z" fill="white"/>
<path d="M425.374 267.872H423.998V269.12C423.998 269.792 423.646 270.304 422.814 270.304H422.398V271.664H423.87V275.888C423.87 277.28 424.702 278.08 426.014 278.08C426.526 278.08 426.91 277.984 427.038 277.936V276.656C426.91 276.688 426.638 276.72 426.446 276.72C425.662 276.72 425.374 276.368 425.374 275.664V271.664H427.038V270.304H425.374V267.872Z" fill="white"/>
<path d="M431.062 267.872H429.686V269.12C429.686 269.792 429.334 270.304 428.502 270.304H428.086V271.664H429.558V275.888C429.558 277.28 430.39 278.08 431.702 278.08C432.214 278.08 432.598 277.984 432.726 277.936V276.656C432.598 276.688 432.326 276.72 432.134 276.72C431.35 276.72 431.062 276.368 431.062 275.664V271.664H432.726V270.304H431.062V267.872Z" fill="white"/>
<path d="M437.951 276.896C436.671 276.896 435.551 275.936 435.551 274.144C435.551 272.368 436.671 271.408 437.951 271.408C439.231 271.408 440.351 272.368 440.351 274.144C440.351 275.936 439.231 276.896 437.951 276.896ZM437.951 270.064C435.647 270.064 434.015 271.808 434.015 274.144C434.015 276.496 435.647 278.24 437.951 278.24C440.255 278.24 441.887 276.496 441.887 274.144C441.887 271.808 440.255 270.064 437.951 270.064Z" fill="white"/>
<path d="M445.315 273.552C445.315 272.384 445.923 271.44 447.107 271.44C448.451 271.44 448.899 272.304 448.899 273.376V278H450.403V273.12C450.403 271.408 449.491 270.08 447.651 270.08C446.755 270.08 445.843 270.448 445.283 271.408V270.304H443.811V278H445.315V273.552Z" fill="white"/>
<path d="M456.316 275.936C456.316 277.152 457.324 278.24 458.892 278.24C460.268 278.24 461.036 277.504 461.372 276.96C461.372 277.52 461.42 277.808 461.452 278H462.924C462.892 277.808 462.828 277.408 462.828 276.736V272.88C462.828 271.376 461.932 270.064 459.628 270.064C457.964 270.064 456.636 271.088 456.476 272.56L457.916 272.896C458.012 272 458.604 271.344 459.66 271.344C460.828 271.344 461.324 271.968 461.324 272.72C461.324 272.992 461.196 273.232 460.732 273.296L458.652 273.6C457.324 273.792 456.316 274.56 456.316 275.936ZM459.1 276.976C458.332 276.976 457.852 276.432 457.852 275.856C457.852 275.168 458.332 274.8 458.972 274.704L461.324 274.352V274.704C461.324 276.384 460.332 276.976 459.1 276.976Z" fill="white"/>
<path d="M466.675 273.552C466.675 272.384 467.283 271.44 468.467 271.44C469.811 271.44 470.259 272.304 470.259 273.376V278H471.763V273.12C471.763 271.408 470.851 270.08 469.011 270.08C468.115 270.08 467.203 270.448 466.643 271.408V270.304H465.171V278H466.675V273.552Z" fill="white"/>
<path d="M475.051 274.128C475.051 272.544 475.947 271.424 477.323 271.424C478.699 271.424 479.531 272.512 479.531 274.096C479.531 275.68 478.683 276.88 477.307 276.88C475.867 276.88 475.051 275.712 475.051 274.128ZM479.547 276.96C479.547 277.424 479.595 277.824 479.627 278H481.083C481.067 277.872 481.003 277.312 481.003 276.576V266.416H479.515V271.392C479.259 270.768 478.523 270.096 477.163 270.096C474.987 270.096 473.515 271.952 473.515 274.128C473.515 276.416 474.907 278.208 477.163 278.208C478.363 278.208 479.179 277.568 479.547 276.832V276.96Z" fill="white"/>
<path d="M272.2 301.216L277.208 290.304H275.592L273.288 295.616L270.888 290.304H269.16L272.472 297.152L270.552 301.216H272.2Z" fill="white"/>
<path d="M281.639 296.896C280.359 296.896 279.239 295.936 279.239 294.144C279.239 292.368 280.359 291.408 281.639 291.408C282.919 291.408 284.039 292.368 284.039 294.144C284.039 295.936 282.919 296.896 281.639 296.896ZM281.639 290.064C279.335 290.064 277.703 291.808 277.703 294.144C277.703 296.496 279.335 298.24 281.639 298.24C283.943 298.24 285.575 296.496 285.575 294.144C285.575 291.808 283.943 290.064 281.639 290.064Z" fill="white"/>
<path d="M292.493 297.072C292.493 297.392 292.525 297.824 292.557 298H293.997C293.965 297.728 293.917 297.184 293.917 296.576V290.304H292.413V294.944C292.413 296.112 291.805 296.912 290.589 296.912C289.325 296.912 288.845 295.984 288.845 294.928V290.304H287.341V295.152C287.341 296.896 288.429 298.24 290.221 298.24C291.117 298.24 292.077 297.872 292.493 297.072Z" fill="white"/>
<path d="M303.715 291.456C305.027 291.456 305.587 292.336 305.779 293.088L307.139 292.512C306.819 291.344 305.763 290.064 303.715 290.064C301.523 290.064 299.843 291.744 299.843 294.144C299.843 296.48 301.491 298.24 303.731 298.24C305.731 298.24 306.835 296.944 307.203 295.84L305.875 295.264C305.699 295.872 305.171 296.848 303.731 296.848C302.483 296.848 301.379 295.904 301.379 294.144C301.379 292.352 302.499 291.456 303.715 291.456Z" fill="white"/>
<path d="M308.41 295.936C308.41 297.152 309.418 298.24 310.986 298.24C312.362 298.24 313.13 297.504 313.466 296.96C313.466 297.52 313.514 297.808 313.546 298H315.018C314.986 297.808 314.922 297.408 314.922 296.736V292.88C314.922 291.376 314.026 290.064 311.722 290.064C310.058 290.064 308.73 291.088 308.57 292.56L310.01 292.896C310.106 292 310.698 291.344 311.754 291.344C312.922 291.344 313.418 291.968 313.418 292.72C313.418 292.992 313.29 293.232 312.826 293.296L310.746 293.6C309.418 293.792 308.41 294.56 308.41 295.936ZM311.194 296.976C310.426 296.976 309.946 296.432 309.946 295.856C309.946 295.168 310.426 294.8 311.066 294.704L313.418 294.352V294.704C313.418 296.384 312.426 296.976 311.194 296.976Z" fill="white"/>
<path d="M318.769 293.552C318.769 292.384 319.377 291.44 320.561 291.44C321.905 291.44 322.353 292.304 322.353 293.376V298H323.857V293.12C323.857 291.408 322.945 290.08 321.105 290.08C320.209 290.08 319.297 290.448 318.737 291.408V290.304H317.265V298H318.769V293.552Z" fill="white"/>
<path d="M329.769 295.936C329.769 297.152 330.777 298.24 332.345 298.24C333.721 298.24 334.489 297.504 334.825 296.96C334.825 297.52 334.873 297.808 334.905 298H336.377C336.345 297.808 336.281 297.408 336.281 296.736V292.88C336.281 291.376 335.385 290.064 333.081 290.064C331.417 290.064 330.089 291.088 329.929 292.56L331.369 292.896C331.465 292 332.057 291.344 333.113 291.344C334.281 291.344 334.777 291.968 334.777 292.72C334.777 292.992 334.649 293.232 334.185 293.296L332.105 293.6C330.777 293.792 329.769 294.56 329.769 295.936ZM332.553 296.976C331.785 296.976 331.305 296.432 331.305 295.856C331.305 295.168 331.785 294.8 332.425 294.704L334.777 294.352V294.704C334.777 296.384 333.785 296.976 332.553 296.976Z" fill="white"/>
<path d="M339.52 294.128C339.52 292.544 340.416 291.424 341.792 291.424C343.168 291.424 344 292.512 344 294.096C344 295.68 343.152 296.88 341.776 296.88C340.336 296.88 339.52 295.712 339.52 294.128ZM344.016 296.96C344.016 297.424 344.064 297.824 344.096 298H345.552C345.536 297.872 345.472 297.312 345.472 296.576V286.416H343.984V291.392C343.728 290.768 342.992 290.096 341.632 290.096C339.456 290.096 337.984 291.952 337.984 294.128C337.984 296.416 339.376 298.208 341.632 298.208C342.832 298.208 343.648 297.568 344.016 296.832V296.96Z" fill="white"/>
<path d="M348.926 294.128C348.926 292.544 349.822 291.424 351.198 291.424C352.574 291.424 353.406 292.512 353.406 294.096C353.406 295.68 352.558 296.88 351.182 296.88C349.742 296.88 348.926 295.712 348.926 294.128ZM353.422 296.96C353.422 297.424 353.47 297.824 353.502 298H354.958C354.942 297.872 354.878 297.312 354.878 296.576V286.416H353.39V291.392C353.134 290.768 352.398 290.096 351.038 290.096C348.862 290.096 347.39 291.952 347.39 294.128C347.39 296.416 348.782 298.208 351.038 298.208C352.238 298.208 353.054 297.568 353.422 296.832V296.96Z" fill="white"/>
<path d="M363.356 301.216L368.364 290.304H366.748L364.444 295.616L362.044 290.304H360.316L363.628 297.152L361.708 301.216H363.356Z" fill="white"/>
<path d="M372.795 296.896C371.515 296.896 370.395 295.936 370.395 294.144C370.395 292.368 371.515 291.408 372.795 291.408C374.075 291.408 375.195 292.368 375.195 294.144C375.195 295.936 374.075 296.896 372.795 296.896ZM372.795 290.064C370.491 290.064 368.859 291.808 368.859 294.144C368.859 296.496 370.491 298.24 372.795 298.24C375.099 298.24 376.731 296.496 376.731 294.144C376.731 291.808 375.099 290.064 372.795 290.064Z" fill="white"/>
<path d="M383.649 297.072C383.649 297.392 383.681 297.824 383.713 298H385.153C385.121 297.728 385.073 297.184 385.073 296.576V290.304H383.569V294.944C383.569 296.112 382.961 296.912 381.745 296.912C380.481 296.912 380.001 295.984 380.001 294.928V290.304H378.497V295.152C378.497 296.896 379.585 298.24 381.377 298.24C382.273 298.24 383.233 297.872 383.649 297.072Z" fill="white"/>
<path d="M391.912 290.224C391.832 290.208 391.624 290.176 391.416 290.176C390.632 290.176 389.672 290.464 389.112 291.648V290.304H387.64V298H389.144V294.144C389.144 292.448 389.992 291.776 391.256 291.776C391.464 291.776 391.688 291.792 391.912 291.824V290.224Z" fill="white"/>
<path d="M400.507 286.368C399.115 286.368 397.979 287.296 397.979 289.008V290.304H396.555V291.664H397.979V298H399.531V291.664H403.131V298H404.619V290.304H399.531V289.072C399.531 288.016 400.219 287.776 400.747 287.776C401.131 287.776 401.323 287.84 401.403 287.872V286.528C401.339 286.48 401.019 286.368 400.507 286.368ZM402.795 287.36C402.795 287.952 403.275 288.432 403.867 288.432C404.475 288.432 404.955 287.952 404.955 287.36C404.955 286.752 404.475 286.272 403.867 286.272C403.275 286.272 402.795 286.752 402.795 287.36Z" fill="white"/>
<path d="M411.443 290.224C411.363 290.208 411.155 290.176 410.947 290.176C410.163 290.176 409.203 290.464 408.643 291.648V290.304H407.171V298H408.675V294.144C408.675 292.448 409.523 291.776 410.787 291.776C410.995 291.776 411.219 291.792 411.443 291.824V290.224Z" fill="white"/>
<path d="M412.326 296C412.454 296.88 413.35 298.24 415.462 298.24C417.366 298.24 418.278 296.944 418.278 295.856C418.278 294.72 417.542 293.872 416.15 293.568L414.902 293.296C414.31 293.168 414.022 292.832 414.022 292.368C414.022 291.84 414.534 291.344 415.302 291.344C416.518 291.344 416.838 292.224 416.902 292.624L418.23 292.128C418.07 291.44 417.414 290.064 415.302 290.064C413.798 290.064 412.566 291.184 412.566 292.496C412.566 293.584 413.286 294.4 414.486 294.656L415.798 294.944C416.438 295.088 416.79 295.456 416.79 295.936C416.79 296.48 416.326 296.96 415.478 296.96C414.39 296.96 413.782 296.32 413.686 295.52L412.326 296Z" fill="white"/>
<path d="M422.296 287.872H420.92V289.12C420.92 289.792 420.568 290.304 419.736 290.304H419.32V291.664H420.792V295.888C420.792 297.28 421.624 298.08 422.936 298.08C423.448 298.08 423.832 297.984 423.96 297.936V296.656C423.832 296.688 423.56 296.72 423.368 296.72C422.584 296.72 422.296 296.368 422.296 295.664V291.664H423.96V290.304H422.296V287.872Z" fill="white"/>
<path d="M433.216 300.368V299.168H431.44V286.656H433.216V285.44H430.128V300.368H433.216Z" fill="white"/>
<path d="M436.065 298V290.304H434.577V298H436.065ZM434.241 287.392C434.241 287.984 434.721 288.464 435.313 288.464C435.921 288.464 436.401 287.984 436.401 287.392C436.401 286.784 435.921 286.304 435.313 286.304C434.721 286.304 434.241 286.784 434.241 287.392Z" fill="white"/>
<path d="M440.64 287.872H439.264V289.12C439.264 289.792 438.912 290.304 438.08 290.304H437.664V291.664H439.136V295.888C439.136 297.28 439.968 298.08 441.28 298.08C441.792 298.08 442.176 297.984 442.304 297.936V296.656C442.176 296.688 441.904 296.72 441.712 296.72C440.928 296.72 440.64 296.368 440.64 295.664V291.664H442.304V290.304H440.64V287.872Z" fill="white"/>
<path d="M445.209 293.36C445.273 292.368 446.041 291.392 447.305 291.392C448.665 291.392 449.385 292.256 449.417 293.36H445.209ZM449.641 295.36C449.353 296.224 448.729 296.912 447.481 296.912C446.185 296.912 445.193 295.952 445.161 294.576H450.953C450.969 294.48 450.985 294.288 450.985 294.096C450.985 291.696 449.657 290.064 447.289 290.064C445.353 290.064 443.609 291.712 443.609 294.128C443.609 296.736 445.417 298.24 447.481 298.24C449.273 298.24 450.505 297.168 450.937 295.808L449.641 295.36Z" fill="white"/>
<path d="M454.393 298V293.36C454.393 292.208 455.113 291.408 456.185 291.408C457.337 291.408 457.817 292.176 457.817 293.168V298H459.321V293.344C459.321 292.24 460.041 291.408 461.097 291.408C462.233 291.408 462.729 292.16 462.729 293.168V298H464.217V293.008C464.217 290.992 462.905 290.08 461.561 290.08C460.585 290.08 459.593 290.432 458.985 291.536C458.569 290.544 457.641 290.08 456.681 290.08C455.785 290.08 454.825 290.48 454.345 291.328V290.304H452.905V298H454.393Z" fill="white"/>
<path d="M468.512 300.368V285.44H465.424V286.656H467.2V299.168H465.424V300.368H468.512Z" fill="white"/>
</g>
<defs>
<filter id="filter0_d_224_1085" x="0" y="0" width="606" height="365" filterUnits="userSpaceOnUse" color-interpolation-filters="sRGB">
<feFlood flood-opacity="0" result="BackgroundImageFix"/>
<feColorMatrix in="SourceAlpha" type="matrix" values="0 0 0 0 0 0 0 0 0 0 0 0 0 0 0 0 0 0 127 0" result="hardAlpha"/>
<feOffset dx="4" dy="4"/>
<feGaussianBlur stdDeviation="12.5"/>
<feComposite in2="hardAlpha" operator="out"/>
<feColorMatrix type="matrix" values="0 0 0 0 0 0 0 0 0 0 0 0 0 0 0 0 0 0 0.05 0"/>
<feBlend mode="normal" in2="BackgroundImageFix" result="effect1_dropShadow_224_1085"/>
<feBlend mode="normal" in="SourceGraphic" in2="effect1_dropShadow_224_1085" result="shape"/>
</filter>
</defs>
</svg>
