<svg width="501" height="313" viewBox="0 0 501 313" fill="none" xmlns="http://www.w3.org/2000/svg">
<g filter="url(#filter0_d_224_1125)">
<rect x="21" y="21" width="302.687" height="118.064" rx="8" fill="white"/>
<path d="M299.409 61.9517V73.4633H287.906V61.9517H299.409ZM299.409 60.6726H287.906C287.567 60.6726 287.242 60.8074 287.003 61.0472C286.763 61.2871 286.628 61.6124 286.628 61.9517V73.4633C286.628 73.8025 286.763 74.1279 287.003 74.3677C287.242 74.6076 287.567 74.7424 287.906 74.7424H299.409C299.748 74.7424 300.073 74.6076 300.312 74.3677C300.552 74.1279 300.687 73.8025 300.687 73.4633V61.9517C300.687 61.6124 300.552 61.2871 300.312 61.0472C300.073 60.8074 299.748 60.6726 299.409 60.6726V60.6726Z" fill="#7D7D7D"/>
<path d="M284.071 67.068H282.793V58.1145C282.793 57.7753 282.928 57.45 283.167 57.2101C283.407 56.9702 283.732 56.8354 284.071 56.8354H293.017V58.1145H284.071V67.068Z" fill="#7D7D7D"/>
<path d="M53.152 54.808V53.352H44V54.808H47.792V64.696H49.36V54.808H53.152Z" fill="#151515"/>
<path d="M56.0928 60.168C56.1248 59.032 56.7328 58.136 57.8848 58.136C59.2288 58.136 59.6768 59 59.6768 60.072V64.696H61.1807V59.816C61.1807 58.104 60.2688 56.776 58.4288 56.776C57.5488 56.776 56.6528 57.08 56.0928 57.896V53.112H54.5887V64.696H56.0928V60.168Z" fill="#151515"/>
<path d="M65.0611 64.696V57H63.5731V64.696H65.0611ZM63.2371 54.088C63.2371 54.68 63.7171 55.16 64.3091 55.16C64.9171 55.16 65.3971 54.68 65.3971 54.088C65.3971 53.48 64.9171 53 64.3091 53C63.7171 53 63.2371 53.48 63.2371 54.088Z" fill="#151515"/>
<path d="M66.9 62.696C67.028 63.576 67.924 64.936 70.036 64.936C71.94 64.936 72.852 63.64 72.852 62.552C72.852 61.416 72.116 60.568 70.724 60.264L69.476 59.992C68.884 59.864 68.596 59.528 68.596 59.064C68.596 58.536 69.108 58.04 69.876 58.04C71.092 58.04 71.412 58.92 71.476 59.32L72.804 58.824C72.644 58.136 71.988 56.76 69.876 56.76C68.372 56.76 67.14 57.88 67.14 59.192C67.14 60.28 67.86 61.096 69.06 61.352L70.372 61.64C71.012 61.784 71.364 62.152 71.364 62.632C71.364 63.176 70.9 63.656 70.052 63.656C68.964 63.656 68.356 63.016 68.26 62.216L66.9 62.696Z" fill="#151515"/>
<path d="M78.1344 62.696C78.2624 63.576 79.1584 64.936 81.2704 64.936C83.1744 64.936 84.0864 63.64 84.0864 62.552C84.0864 61.416 83.3504 60.568 81.9584 60.264L80.7104 59.992C80.1184 59.864 79.8304 59.528 79.8304 59.064C79.8304 58.536 80.3424 58.04 81.1104 58.04C82.3264 58.04 82.6464 58.92 82.7104 59.32L84.0384 58.824C83.8784 58.136 83.2224 56.76 81.1104 56.76C79.6064 56.76 78.3744 57.88 78.3744 59.192C78.3744 60.28 79.0944 61.096 80.2944 61.352L81.6064 61.64C82.2464 61.784 82.5984 62.152 82.5984 62.632C82.5984 63.176 82.1344 63.656 81.2864 63.656C80.1984 63.656 79.5904 63.016 79.4944 62.216L78.1344 62.696Z" fill="#151515"/>
<path d="M86.9866 60.056C87.0506 59.064 87.8186 58.088 89.0826 58.088C90.4426 58.088 91.1626 58.952 91.1946 60.056H86.9866ZM91.4186 62.056C91.1306 62.92 90.5066 63.608 89.2586 63.608C87.9626 63.608 86.9706 62.648 86.9386 61.272H92.7306C92.7466 61.176 92.7626 60.984 92.7626 60.792C92.7626 58.392 91.4346 56.76 89.0666 56.76C87.1306 56.76 85.3866 58.408 85.3866 60.824C85.3866 63.432 87.1946 64.936 89.2586 64.936C91.0506 64.936 92.2826 63.864 92.7146 62.504L91.4186 62.056Z" fill="#151515"/>
<path d="M97.9145 58.152C99.2265 58.152 99.7865 59.032 99.9785 59.784L101.339 59.208C101.019 58.04 99.9625 56.76 97.9145 56.76C95.7225 56.76 94.0425 58.44 94.0425 60.84C94.0425 63.176 95.6905 64.936 97.9305 64.936C99.9305 64.936 101.035 63.64 101.403 62.536L100.075 61.96C99.8985 62.568 99.3705 63.544 97.9305 63.544C96.6825 63.544 95.5785 62.6 95.5785 60.84C95.5785 59.048 96.6985 58.152 97.9145 58.152Z" fill="#151515"/>
<path d="M105.183 54.568H103.807V55.816C103.807 56.488 103.455 57 102.623 57H102.207V58.36H103.679V62.584C103.679 63.976 104.511 64.776 105.823 64.776C106.335 64.776 106.719 64.68 106.847 64.632V63.352C106.719 63.384 106.447 63.416 106.255 63.416C105.471 63.416 105.183 63.064 105.183 62.36V58.36H106.847V57H105.183V54.568Z" fill="#151515"/>
<path d="M110.342 64.696V57H108.854V64.696H110.342ZM108.518 54.088C108.518 54.68 108.998 55.16 109.59 55.16C110.198 55.16 110.678 54.68 110.678 54.088C110.678 53.48 110.198 53 109.59 53C108.998 53 108.518 53.48 108.518 54.088Z" fill="#151515"/>
<path d="M116.197 63.592C114.917 63.592 113.797 62.632 113.797 60.84C113.797 59.064 114.917 58.104 116.197 58.104C117.477 58.104 118.597 59.064 118.597 60.84C118.597 62.632 117.477 63.592 116.197 63.592ZM116.197 56.76C113.893 56.76 112.261 58.504 112.261 60.84C112.261 63.192 113.893 64.936 116.197 64.936C118.501 64.936 120.133 63.192 120.133 60.84C120.133 58.504 118.501 56.76 116.197 56.76Z" fill="#151515"/>
<path d="M123.561 60.248C123.561 59.08 124.17 58.136 125.354 58.136C126.698 58.136 127.146 59 127.146 60.072V64.696H128.649V59.816C128.649 58.104 127.737 56.776 125.897 56.776C125.001 56.776 124.089 57.144 123.529 58.104V57H122.057V64.696H123.561V60.248Z" fill="#151515"/>
<path d="M136.53 64.696V57H135.042V64.696H136.53ZM134.706 54.088C134.706 54.68 135.186 55.16 135.778 55.16C136.386 55.16 136.866 54.68 136.866 54.088C136.866 53.48 136.386 53 135.778 53C135.186 53 134.706 53.48 134.706 54.088Z" fill="#151515"/>
<path d="M138.369 62.696C138.497 63.576 139.393 64.936 141.505 64.936C143.409 64.936 144.321 63.64 144.321 62.552C144.321 61.416 143.585 60.568 142.193 60.264L140.945 59.992C140.353 59.864 140.065 59.528 140.065 59.064C140.065 58.536 140.577 58.04 141.345 58.04C142.561 58.04 142.881 58.92 142.945 59.32L144.273 58.824C144.113 58.136 143.457 56.76 141.345 56.76C139.841 56.76 138.609 57.88 138.609 59.192C138.609 60.28 139.329 61.096 140.529 61.352L141.841 61.64C142.481 61.784 142.833 62.152 142.833 62.632C142.833 63.176 142.369 63.656 141.521 63.656C140.433 63.656 139.825 63.016 139.729 62.216L138.369 62.696Z" fill="#151515"/>
<path d="M151.827 64.696V53.112H150.323V64.696H151.827Z" fill="#151515"/>
<path d="M157.682 63.592C156.402 63.592 155.282 62.632 155.282 60.84C155.282 59.064 156.402 58.104 157.682 58.104C158.962 58.104 160.082 59.064 160.082 60.84C160.082 62.632 158.962 63.592 157.682 63.592ZM157.682 56.76C155.378 56.76 153.746 58.504 153.746 60.84C153.746 63.192 155.378 64.936 157.682 64.936C159.986 64.936 161.618 63.192 161.618 60.84C161.618 58.504 159.986 56.76 157.682 56.76Z" fill="#151515"/>
<path d="M165.046 60.248C165.046 59.08 165.654 58.136 166.838 58.136C168.182 58.136 168.63 59 168.63 60.072V64.696H170.134V59.816C170.134 58.104 169.222 56.776 167.382 56.776C166.486 56.776 165.574 57.144 165.014 58.104V57H163.542V64.696H165.046V60.248Z" fill="#151515"/>
<path d="M173.502 60.056C173.566 59.064 174.334 58.088 175.598 58.088C176.958 58.088 177.678 58.952 177.71 60.056H173.502ZM177.934 62.056C177.646 62.92 177.022 63.608 175.774 63.608C174.478 63.608 173.486 62.648 173.454 61.272H179.246C179.262 61.176 179.278 60.984 179.278 60.792C179.278 58.392 177.95 56.76 175.582 56.76C173.646 56.76 171.902 58.408 171.902 60.824C171.902 63.432 173.71 64.936 175.774 64.936C177.566 64.936 178.798 63.864 179.23 62.504L177.934 62.056Z" fill="#151515"/>
<path d="M182.702 64.696V53.112H181.198V64.696H182.702Z" fill="#151515"/>
<path d="M187.181 67.912L192.189 57H190.573L188.269 62.312L185.869 57H184.141L187.453 63.848L185.533 67.912H187.181Z" fill="#151515"/>
<path d="M191.71 63.672C191.71 64.296 192.19 64.776 192.814 64.776C193.438 64.776 193.934 64.296 193.934 63.672C193.934 63.048 193.438 62.552 192.814 62.552C192.19 62.552 191.71 63.048 191.71 63.672Z" fill="#151515"/>
<path d="M202.067 64.696V59.928H206.899V58.456H202.067V54.808H207.395V53.352H200.499V64.696H202.067Z" fill="#151515"/>
<path d="M210.561 64.696V57H209.073V64.696H210.561ZM208.737 54.088C208.737 54.68 209.217 55.16 209.809 55.16C210.417 55.16 210.897 54.68 210.897 54.088C210.897 53.48 210.417 53 209.809 53C209.217 53 208.737 53.48 208.737 54.088Z" fill="#151515"/>
<path d="M214.624 64.696V53.112H213.12V64.696H214.624Z" fill="#151515"/>
<path d="M218.686 64.696V53.112H217.182V64.696H218.686Z" fill="#151515"/>
<path d="M226.733 64.696V57H225.245V64.696H226.733ZM224.909 54.088C224.909 54.68 225.389 55.16 225.981 55.16C226.589 55.16 227.069 54.68 227.069 54.088C227.069 53.48 226.589 53 225.981 53C225.389 53 224.909 53.48 224.909 54.088Z" fill="#151515"/>
<path d="M231.308 54.568H229.932V55.816C229.932 56.488 229.58 57 228.748 57H228.332V58.36H229.804V62.584C229.804 63.976 230.636 64.776 231.948 64.776C232.46 64.776 232.844 64.68 232.972 64.632V63.352C232.844 63.384 232.572 63.416 232.38 63.416C231.596 63.416 231.308 63.064 231.308 62.36V58.36H232.972V57H231.308V54.568Z" fill="#151515"/>
<path d="M46.624 80.168C46.656 79.032 47.264 78.136 48.416 78.136C49.76 78.136 50.208 79 50.208 80.072V84.696H51.712V79.816C51.712 78.104 50.8 76.776 48.96 76.776C48.08 76.776 47.184 77.08 46.624 77.896V73.112H45.12V84.696H46.624V80.168Z" fill="#151515"/>
<path d="M53.6244 82.632C53.6244 83.848 54.6324 84.936 56.2004 84.936C57.5764 84.936 58.3444 84.2 58.6804 83.656C58.6804 84.216 58.7284 84.504 58.7604 84.696H60.2324C60.2004 84.504 60.1364 84.104 60.1364 83.432V79.576C60.1364 78.072 59.2404 76.76 56.9364 76.76C55.2724 76.76 53.9444 77.784 53.7844 79.256L55.2244 79.592C55.3204 78.696 55.9124 78.04 56.9684 78.04C58.1364 78.04 58.6324 78.664 58.6324 79.416C58.6324 79.688 58.5044 79.928 58.0404 79.992L55.9604 80.296C54.6324 80.488 53.6244 81.256 53.6244 82.632ZM56.4084 83.672C55.6404 83.672 55.1604 83.128 55.1604 82.552C55.1604 81.864 55.6404 81.496 56.2804 81.4L58.6324 81.048V81.4C58.6324 83.08 57.6404 83.672 56.4084 83.672Z" fill="#151515"/>
<path d="M63.9674 87.736V83.656C64.3834 84.344 65.2794 84.904 66.4634 84.904C68.7194 84.904 70.0474 83.128 70.0474 80.84C70.0474 78.6 68.8154 76.824 66.5114 76.824C65.2634 76.824 64.3514 77.432 63.9354 78.2V77H62.4794V87.736H63.9674ZM68.5114 80.84C68.5114 82.424 67.6314 83.56 66.2394 83.56C64.8634 83.56 63.9514 82.424 63.9514 80.84C63.9514 79.304 64.8634 78.152 66.2394 78.152C67.6474 78.152 68.5114 79.304 68.5114 80.84Z" fill="#151515"/>
<path d="M73.4517 87.736V83.656C73.8677 84.344 74.7638 84.904 75.9478 84.904C78.2038 84.904 79.5317 83.128 79.5317 80.84C79.5317 78.6 78.2998 76.824 75.9958 76.824C74.7478 76.824 73.8358 77.432 73.4198 78.2V77H71.9638V87.736H73.4517ZM77.9958 80.84C77.9958 82.424 77.1158 83.56 75.7238 83.56C74.3478 83.56 73.4358 82.424 73.4358 80.84C73.4358 79.304 74.3478 78.152 75.7238 78.152C77.1318 78.152 77.9958 79.304 77.9958 80.84Z" fill="#151515"/>
<path d="M82.9361 84.696V77H81.4481V84.696H82.9361ZM81.1121 74.088C81.1121 74.68 81.5921 75.16 82.1841 75.16C82.7921 75.16 83.2721 74.68 83.2721 74.088C83.2721 73.48 82.7921 73 82.1841 73C81.5921 73 81.1121 73.48 81.1121 74.088Z" fill="#151515"/>
<path d="M86.999 80.248C86.999 79.08 87.607 78.136 88.791 78.136C90.135 78.136 90.583 79 90.583 80.072V84.696H92.087V79.816C92.087 78.104 91.175 76.776 89.335 76.776C88.439 76.776 87.527 77.144 86.967 78.104V77H85.495V84.696H86.999V80.248Z" fill="#151515"/>
<path d="M95.4554 80.056C95.5194 79.064 96.2874 78.088 97.5514 78.088C98.9114 78.088 99.6314 78.952 99.6634 80.056H95.4554ZM99.8874 82.056C99.5994 82.92 98.9754 83.608 97.7274 83.608C96.4314 83.608 95.4394 82.648 95.4074 81.272H101.199C101.215 81.176 101.231 80.984 101.231 80.792C101.231 78.392 99.9034 76.76 97.5354 76.76C95.5994 76.76 93.8554 78.408 93.8554 80.824C93.8554 83.432 95.6634 84.936 97.7274 84.936C99.5194 84.936 100.751 83.864 101.183 82.504L99.8874 82.056Z" fill="#151515"/>
<path d="M102.431 82.696C102.559 83.576 103.455 84.936 105.567 84.936C107.471 84.936 108.383 83.64 108.383 82.552C108.383 81.416 107.647 80.568 106.255 80.264L105.007 79.992C104.415 79.864 104.127 79.528 104.127 79.064C104.127 78.536 104.639 78.04 105.407 78.04C106.623 78.04 106.943 78.92 107.007 79.32L108.335 78.824C108.175 78.136 107.519 76.76 105.407 76.76C103.903 76.76 102.671 77.88 102.671 79.192C102.671 80.28 103.391 81.096 104.591 81.352L105.903 81.64C106.543 81.784 106.895 82.152 106.895 82.632C106.895 83.176 106.431 83.656 105.583 83.656C104.495 83.656 103.887 83.016 103.791 82.216L102.431 82.696Z" fill="#151515"/>
<path d="M109.666 82.696C109.794 83.576 110.69 84.936 112.802 84.936C114.706 84.936 115.618 83.64 115.618 82.552C115.618 81.416 114.882 80.568 113.49 80.264L112.242 79.992C111.65 79.864 111.362 79.528 111.362 79.064C111.362 78.536 111.874 78.04 112.642 78.04C113.858 78.04 114.178 78.92 114.242 79.32L115.57 78.824C115.41 78.136 114.754 76.76 112.642 76.76C111.138 76.76 109.906 77.88 109.906 79.192C109.906 80.28 110.626 81.096 111.826 81.352L113.138 81.64C113.778 81.784 114.13 82.152 114.13 82.632C114.13 83.176 113.666 83.656 112.818 83.656C111.73 83.656 111.122 83.016 111.026 82.216L109.666 82.696Z" fill="#151515"/>
<path d="M123.108 84.696V83.576C123.588 84.408 124.468 84.904 125.604 84.904C127.892 84.904 129.188 83.096 129.188 80.808C129.188 78.568 127.988 76.776 125.652 76.776C124.372 76.776 123.476 77.4 123.108 78.088V73.112H121.62V84.696H123.108ZM127.652 80.808C127.652 82.472 126.756 83.56 125.38 83.56C124.052 83.56 123.092 82.472 123.092 80.808C123.092 79.144 124.052 78.104 125.38 78.104C126.772 78.104 127.652 79.144 127.652 80.808Z" fill="#151515"/>
<path d="M132.712 87.912L137.72 77H136.104L133.8 82.312L131.4 77H129.672L132.984 83.848L131.064 87.912H132.712Z" fill="#151515"/>
<path d="M142.687 82.632C142.687 83.848 143.695 84.936 145.263 84.936C146.639 84.936 147.407 84.2 147.743 83.656C147.743 84.216 147.791 84.504 147.823 84.696H149.295C149.263 84.504 149.199 84.104 149.199 83.432V79.576C149.199 78.072 148.303 76.76 145.999 76.76C144.335 76.76 143.007 77.784 142.847 79.256L144.287 79.592C144.383 78.696 144.975 78.04 146.031 78.04C147.199 78.04 147.695 78.664 147.695 79.416C147.695 79.688 147.567 79.928 147.103 79.992L145.023 80.296C143.695 80.488 142.687 81.256 142.687 82.632ZM145.471 83.672C144.703 83.672 144.223 83.128 144.223 82.552C144.223 81.864 144.703 81.496 145.343 81.4L147.695 81.048V81.4C147.695 83.08 146.703 83.672 145.471 83.672Z" fill="#151515"/>
<path d="M152.438 80.824C152.438 79.24 153.334 78.12 154.71 78.12C156.086 78.12 156.918 79.208 156.918 80.792C156.918 82.376 156.07 83.576 154.694 83.576C153.254 83.576 152.438 82.408 152.438 80.824ZM156.934 83.656C156.934 84.12 156.982 84.52 157.014 84.696H158.47C158.454 84.568 158.39 84.008 158.39 83.272V73.112H156.902V78.088C156.646 77.464 155.91 76.792 154.55 76.792C152.374 76.792 150.902 78.648 150.902 80.824C150.902 83.112 152.294 84.904 154.55 84.904C155.75 84.904 156.566 84.264 156.934 83.528V83.656Z" fill="#151515"/>
<path d="M161.844 80.824C161.844 79.24 162.74 78.12 164.116 78.12C165.492 78.12 166.324 79.208 166.324 80.792C166.324 82.376 165.476 83.576 164.1 83.576C162.66 83.576 161.844 82.408 161.844 80.824ZM166.34 83.656C166.34 84.12 166.388 84.52 166.42 84.696H167.876C167.86 84.568 167.796 84.008 167.796 83.272V73.112H166.308V78.088C166.052 77.464 165.316 76.792 163.956 76.792C161.78 76.792 160.308 78.648 160.308 80.824C160.308 83.112 161.7 84.904 163.956 84.904C165.156 84.904 165.972 84.264 166.34 83.528V83.656Z" fill="#151515"/>
<path d="M171.842 84.696V77H170.354V84.696H171.842ZM170.018 74.088C170.018 74.68 170.498 75.16 171.09 75.16C171.698 75.16 172.178 74.68 172.178 74.088C172.178 73.48 171.698 73 171.09 73C170.498 73 170.018 73.48 170.018 74.088Z" fill="#151515"/>
<path d="M175.905 80.248C175.905 79.08 176.513 78.136 177.697 78.136C179.041 78.136 179.489 79 179.489 80.072V84.696H180.993V79.816C180.993 78.104 180.081 76.776 178.241 76.776C177.345 76.776 176.433 77.144 175.873 78.104V77H174.401V84.696H175.905V80.248Z" fill="#151515"/>
<path d="M182.826 85.112C183.018 86.76 184.458 87.976 186.378 87.976C189.274 87.976 190.234 86.072 190.234 84.12V77H188.746V78.072C188.362 77.304 187.562 76.856 186.378 76.856C184.266 76.856 182.842 78.52 182.842 80.6C182.842 82.776 184.33 84.328 186.378 84.328C187.53 84.328 188.362 83.768 188.73 83.064V84.168C188.73 85.832 187.994 86.664 186.378 86.664C185.21 86.664 184.394 85.848 184.282 84.776L182.826 85.112ZM186.602 83.064C185.242 83.064 184.378 82.104 184.378 80.6C184.378 79.112 185.274 78.136 186.602 78.136C187.898 78.136 188.794 79.112 188.794 80.6C188.794 82.088 187.898 83.064 186.602 83.064Z" fill="#151515"/>
<path d="M198.556 87.912L203.564 77H201.948L199.644 82.312L197.244 77H195.516L198.828 83.848L196.908 87.912H198.556Z" fill="#151515"/>
<path d="M207.994 83.592C206.714 83.592 205.594 82.632 205.594 80.84C205.594 79.064 206.714 78.104 207.994 78.104C209.274 78.104 210.394 79.064 210.394 80.84C210.394 82.632 209.274 83.592 207.994 83.592ZM207.994 76.76C205.69 76.76 204.058 78.504 204.058 80.84C204.058 83.192 205.69 84.936 207.994 84.936C210.298 84.936 211.93 83.192 211.93 80.84C211.93 78.504 210.298 76.76 207.994 76.76Z" fill="#151515"/>
<path d="M218.848 83.768C218.848 84.088 218.88 84.52 218.912 84.696H220.352C220.32 84.424 220.272 83.88 220.272 83.272V77H218.768V81.64C218.768 82.808 218.16 83.608 216.944 83.608C215.68 83.608 215.2 82.68 215.2 81.624V77H213.696V81.848C213.696 83.592 214.784 84.936 216.576 84.936C217.472 84.936 218.432 84.568 218.848 83.768Z" fill="#151515"/>
<path d="M227.111 76.92C227.031 76.904 226.823 76.872 226.615 76.872C225.831 76.872 224.871 77.16 224.311 78.344V77H222.839V84.696H224.343V80.84C224.343 79.144 225.191 78.472 226.455 78.472C226.663 78.472 226.887 78.488 227.111 78.52V76.92Z" fill="#151515"/>
<path d="M48.112 93.064C46.72 93.064 45.584 93.992 45.584 95.704V97H44.16V98.36H45.584V104.696H47.136V98.36H50.736V104.696H52.224V97H47.136V95.768C47.136 94.712 47.824 94.472 48.352 94.472C48.736 94.472 48.928 94.536 49.008 94.568V93.224C48.944 93.176 48.624 93.064 48.112 93.064ZM50.4 94.056C50.4 94.648 50.88 95.128 51.472 95.128C52.08 95.128 52.56 94.648 52.56 94.056C52.56 93.448 52.08 92.968 51.472 92.968C50.88 92.968 50.4 93.448 50.4 94.056Z" fill="#151515"/>
<path d="M59.0483 96.92C58.9683 96.904 58.7603 96.872 58.5522 96.872C57.7682 96.872 56.8083 97.16 56.2483 98.344V97H54.7762V104.696H56.2803V100.84C56.2803 99.144 57.1282 98.472 58.3923 98.472C58.6002 98.472 58.8243 98.488 59.0483 98.52V96.92Z" fill="#151515"/>
<path d="M59.9312 102.696C60.0592 103.576 60.9552 104.936 63.0672 104.936C64.9712 104.936 65.8833 103.64 65.8833 102.552C65.8833 101.416 65.1473 100.568 63.7553 100.264L62.5072 99.992C61.9152 99.864 61.6273 99.528 61.6273 99.064C61.6273 98.536 62.1392 98.04 62.9072 98.04C64.1232 98.04 64.4432 98.92 64.5072 99.32L65.8353 98.824C65.6753 98.136 65.0192 96.76 62.9072 96.76C61.4032 96.76 60.1712 97.88 60.1712 99.192C60.1712 100.28 60.8912 101.096 62.0912 101.352L63.4032 101.64C64.0433 101.784 64.3953 102.152 64.3953 102.632C64.3953 103.176 63.9313 103.656 63.0833 103.656C61.9952 103.656 61.3873 103.016 61.2913 102.216L59.9312 102.696Z" fill="#151515"/>
<path d="M69.9016 94.568H68.5256V95.816C68.5256 96.488 68.1736 97 67.3416 97H66.9256V98.36H68.3976V102.584C68.3976 103.976 69.2296 104.776 70.5416 104.776C71.0536 104.776 71.4376 104.68 71.5656 104.632V103.352C71.4376 103.384 71.1656 103.416 70.9736 103.416C70.1896 103.416 69.9016 103.064 69.9016 102.36V98.36H71.5656V97H69.9016V94.568Z" fill="#151515"/>
<path d="M80.8209 107.064V105.864H79.0449V93.352H80.8209V92.136H77.7329V107.064H80.8209Z" fill="#D87342"/>
<path d="M83.6703 104.696V97H82.1823V104.696H83.6703ZM81.8463 94.088C81.8463 94.68 82.3263 95.16 82.9183 95.16C83.5263 95.16 84.0063 94.68 84.0063 94.088C84.0063 93.48 83.5263 93 82.9183 93C82.3263 93 81.8463 93.48 81.8463 94.088Z" fill="#D87342"/>
<path d="M88.2452 94.568H86.8692V95.816C86.8692 96.488 86.5172 97 85.6852 97H85.2692V98.36H86.7412V102.584C86.7412 103.976 87.5732 104.776 88.8852 104.776C89.3972 104.776 89.7812 104.68 89.9092 104.632V103.352C89.7812 103.384 89.5092 103.416 89.3172 103.416C88.5332 103.416 88.2452 103.064 88.2452 102.36V98.36H89.9092V97H88.2452V94.568Z" fill="#D87342"/>
<path d="M92.8145 100.056C92.8785 99.064 93.6465 98.088 94.9105 98.088C96.2705 98.088 96.9905 98.952 97.0225 100.056H92.8145ZM97.2465 102.056C96.9585 102.92 96.3345 103.608 95.0865 103.608C93.7905 103.608 92.7985 102.648 92.7665 101.272H98.5585C98.5745 101.176 98.5905 100.984 98.5905 100.792C98.5905 98.392 97.2625 96.76 94.8945 96.76C92.9585 96.76 91.2145 98.408 91.2145 100.824C91.2145 103.432 93.0225 104.936 95.0865 104.936C96.8785 104.936 98.1105 103.864 98.5425 102.504L97.2465 102.056Z" fill="#D87342"/>
<path d="M101.998 104.696V100.056C101.998 98.904 102.718 98.104 103.79 98.104C104.942 98.104 105.422 98.872 105.422 99.864V104.696H106.926V100.04C106.926 98.936 107.646 98.104 108.702 98.104C109.838 98.104 110.334 98.856 110.334 99.864V104.696H111.822V99.704C111.822 97.688 110.51 96.776 109.166 96.776C108.19 96.776 107.198 97.128 106.59 98.232C106.174 97.24 105.246 96.776 104.286 96.776C103.39 96.776 102.43 97.176 101.95 98.024V97H100.51V104.696H101.998Z" fill="#D87342"/>
<path d="M119.733 100.248C119.733 99.08 120.341 98.136 121.525 98.136C122.869 98.136 123.317 99 123.317 100.072V104.696H124.821V99.816C124.821 98.104 123.909 96.776 122.069 96.776C121.173 96.776 120.261 97.144 119.701 98.104V97H118.229V104.696H119.733V100.248Z" fill="#D87342"/>
<path d="M126.734 102.632C126.734 103.848 127.742 104.936 129.31 104.936C130.686 104.936 131.454 104.2 131.79 103.656C131.79 104.216 131.838 104.504 131.87 104.696H133.342C133.31 104.504 133.246 104.104 133.246 103.432V99.576C133.246 98.072 132.35 96.76 130.046 96.76C128.382 96.76 127.054 97.784 126.894 99.256L128.334 99.592C128.43 98.696 129.022 98.04 130.078 98.04C131.246 98.04 131.742 98.664 131.742 99.416C131.742 99.688 131.614 99.928 131.15 99.992L129.07 100.296C127.742 100.488 126.734 101.256 126.734 102.632ZM129.518 103.672C128.75 103.672 128.27 103.128 128.27 102.552C128.27 101.864 128.75 101.496 129.39 101.4L131.742 101.048V101.4C131.742 103.08 130.75 103.672 129.518 103.672Z" fill="#D87342"/>
<path d="M137.077 104.696V100.056C137.077 98.904 137.797 98.104 138.869 98.104C140.021 98.104 140.501 98.872 140.501 99.864V104.696H142.005V100.04C142.005 98.936 142.725 98.104 143.781 98.104C144.917 98.104 145.413 98.856 145.413 99.864V104.696H146.901V99.704C146.901 97.688 145.589 96.776 144.245 96.776C143.269 96.776 142.277 97.128 141.669 98.232C141.253 97.24 140.325 96.776 139.365 96.776C138.469 96.776 137.509 97.176 137.029 98.024V97H135.589V104.696H137.077Z" fill="#D87342"/>
<path d="M150.283 100.056C150.347 99.064 151.115 98.088 152.379 98.088C153.739 98.088 154.459 98.952 154.491 100.056H150.283ZM154.715 102.056C154.427 102.92 153.803 103.608 152.555 103.608C151.259 103.608 150.267 102.648 150.235 101.272H156.027C156.043 101.176 156.059 100.984 156.059 100.792C156.059 98.392 154.731 96.76 152.363 96.76C150.427 96.76 148.683 98.408 148.683 100.824C148.683 103.432 150.491 104.936 152.555 104.936C154.347 104.936 155.579 103.864 156.011 102.504L154.715 102.056Z" fill="#D87342"/>
<path d="M159.711 107.064V92.136H156.623V93.352H158.399V105.864H156.623V107.064H159.711Z" fill="#D87342"/>
</g>
<g filter="url(#filter1_d_224_1125)">
<rect x="169" y="166" width="302.687" height="117.952" rx="8" fill="white"/>
<path d="M447.409 206.84V218.351H435.906V206.84H447.409ZM447.409 205.561H435.906C435.567 205.561 435.242 205.696 435.003 205.935C434.763 206.175 434.628 206.501 434.628 206.84V218.351C434.628 218.691 434.763 219.016 435.003 219.256C435.242 219.496 435.567 219.631 435.906 219.631H447.409C447.748 219.631 448.073 219.496 448.312 219.256C448.552 219.016 448.687 218.691 448.687 218.351V206.84C448.687 206.501 448.552 206.175 448.312 205.935C448.073 205.696 447.748 205.561 447.409 205.561V205.561Z" fill="#7D7D7D"/>
<path d="M432.071 211.956H430.793V203.003C430.793 202.663 430.928 202.338 431.167 202.098C431.407 201.858 431.732 201.724 432.071 201.724H441.017V203.003H432.071V211.956Z" fill="#7D7D7D"/>
<path d="M203.6 207.216L200.688 198.24H199.04L196.192 207.12L193.696 198.24H192.08L195.36 209.584H196.928L199.856 200.384L202.816 209.584H204.432L207.664 198.24H206.048L203.6 207.216Z" fill="#151515"/>
<path d="M209.596 204.944C209.66 203.952 210.428 202.976 211.692 202.976C213.052 202.976 213.772 203.84 213.804 204.944H209.596ZM214.028 206.944C213.74 207.808 213.116 208.496 211.868 208.496C210.572 208.496 209.58 207.536 209.548 206.16H215.34C215.356 206.064 215.372 205.872 215.372 205.68C215.372 203.28 214.044 201.648 211.676 201.648C209.74 201.648 207.996 203.296 207.996 205.712C207.996 208.32 209.804 209.824 211.868 209.824C213.66 209.824 214.892 208.752 215.324 207.392L214.028 206.944Z" fill="#151515"/>
<path d="M218.796 209.584V198H217.292V209.584H218.796Z" fill="#151515"/>
<path d="M224.586 203.04C225.898 203.04 226.458 203.92 226.65 204.672L228.01 204.096C227.69 202.928 226.634 201.648 224.586 201.648C222.394 201.648 220.714 203.328 220.714 205.728C220.714 208.064 222.362 209.824 224.602 209.824C226.602 209.824 227.706 208.528 228.074 207.424L226.746 206.848C226.57 207.456 226.042 208.432 224.602 208.432C223.354 208.432 222.25 207.488 222.25 205.728C222.25 203.936 223.37 203.04 224.586 203.04Z" fill="#151515"/>
<path d="M233.057 208.48C231.777 208.48 230.657 207.52 230.657 205.728C230.657 203.952 231.777 202.992 233.057 202.992C234.337 202.992 235.457 203.952 235.457 205.728C235.457 207.52 234.337 208.48 233.057 208.48ZM233.057 201.648C230.753 201.648 229.121 203.392 229.121 205.728C229.121 208.08 230.753 209.824 233.057 209.824C235.361 209.824 236.993 208.08 236.993 205.728C236.993 203.392 235.361 201.648 233.057 201.648Z" fill="#151515"/>
<path d="M240.405 209.584V204.944C240.405 203.792 241.125 202.992 242.197 202.992C243.349 202.992 243.829 203.76 243.829 204.752V209.584H245.333V204.928C245.333 203.824 246.053 202.992 247.109 202.992C248.245 202.992 248.741 203.744 248.741 204.752V209.584H250.229V204.592C250.229 202.576 248.917 201.664 247.573 201.664C246.597 201.664 245.605 202.016 244.997 203.12C244.581 202.128 243.653 201.664 242.693 201.664C241.797 201.664 240.837 202.064 240.357 202.912V201.888H238.917V209.584H240.405Z" fill="#151515"/>
<path d="M253.612 204.944C253.676 203.952 254.444 202.976 255.708 202.976C257.068 202.976 257.788 203.84 257.82 204.944H253.612ZM258.044 206.944C257.756 207.808 257.132 208.496 255.884 208.496C254.588 208.496 253.596 207.536 253.564 206.16H259.356C259.372 206.064 259.388 205.872 259.388 205.68C259.388 203.28 258.06 201.648 255.692 201.648C253.756 201.648 252.012 203.296 252.012 205.712C252.012 208.32 253.82 209.824 255.884 209.824C257.676 209.824 258.908 208.752 259.34 207.392L258.044 206.944Z" fill="#151515"/>
<path d="M267.323 199.456H265.947V200.704C265.947 201.376 265.595 201.888 264.763 201.888H264.347V203.248H265.819V207.472C265.819 208.864 266.651 209.664 267.963 209.664C268.475 209.664 268.859 209.568 268.987 209.52V208.24C268.859 208.272 268.587 208.304 268.395 208.304C267.611 208.304 267.323 207.952 267.323 207.248V203.248H268.987V201.888H267.323V199.456Z" fill="#151515"/>
<path d="M274.213 208.48C272.933 208.48 271.813 207.52 271.813 205.728C271.813 203.952 272.933 202.992 274.213 202.992C275.493 202.992 276.613 203.952 276.613 205.728C276.613 207.52 275.493 208.48 274.213 208.48ZM274.213 201.648C271.909 201.648 270.277 203.392 270.277 205.728C270.277 208.08 271.909 209.824 274.213 209.824C276.517 209.824 278.149 208.08 278.149 205.728C278.149 203.392 276.517 201.648 274.213 201.648Z" fill="#151515"/>
<path d="M287.369 208.48C286.089 208.48 284.969 207.52 284.969 205.728C284.969 203.952 286.089 202.992 287.369 202.992C288.649 202.992 289.769 203.952 289.769 205.728C289.769 207.52 288.649 208.48 287.369 208.48ZM287.369 201.648C285.065 201.648 283.433 203.392 283.433 205.728C283.433 208.08 285.065 209.824 287.369 209.824C289.673 209.824 291.305 208.08 291.305 205.728C291.305 203.392 289.673 201.648 287.369 201.648Z" fill="#151515"/>
<path d="M298.223 208.656C298.223 208.976 298.255 209.408 298.287 209.584H299.727C299.695 209.312 299.647 208.768 299.647 208.16V201.888H298.143V206.528C298.143 207.696 297.535 208.496 296.319 208.496C295.055 208.496 294.575 207.568 294.575 206.512V201.888H293.071V206.736C293.071 208.48 294.159 209.824 295.951 209.824C296.847 209.824 297.807 209.456 298.223 208.656Z" fill="#151515"/>
<path d="M306.486 201.808C306.406 201.792 306.198 201.76 305.99 201.76C305.206 201.76 304.246 202.048 303.686 203.232V201.888H302.214V209.584H303.718V205.728C303.718 204.032 304.566 203.36 305.83 203.36C306.038 203.36 306.262 203.376 306.486 203.408V201.808Z" fill="#151515"/>
<path d="M378.382 208.56C378.382 209.184 378.862 209.664 379.486 209.664C380.11 209.664 380.606 209.184 380.606 208.56C380.606 207.936 380.11 207.44 379.486 207.44C378.862 207.44 378.382 207.936 378.382 208.56Z" fill="#151515"/>
<path d="M201.152 219.696V218.24H192V219.696H195.792V229.584H197.36V219.696H201.152Z" fill="#151515"/>
<path d="M203.764 229.584V221.888H202.276V229.584H203.764ZM201.94 218.976C201.94 219.568 202.42 220.048 203.012 220.048C203.62 220.048 204.1 219.568 204.1 218.976C204.1 218.368 203.62 217.888 203.012 217.888C202.42 217.888 201.94 218.368 201.94 218.976Z" fill="#151515"/>
<path d="M207.811 229.584V224.944C207.811 223.792 208.531 222.992 209.603 222.992C210.755 222.992 211.235 223.76 211.235 224.752V229.584H212.739V224.928C212.739 223.824 213.459 222.992 214.515 222.992C215.651 222.992 216.147 223.744 216.147 224.752V229.584H217.635V224.592C217.635 222.576 216.323 221.664 214.979 221.664C214.003 221.664 213.011 222.016 212.403 223.12C211.987 222.128 211.059 221.664 210.099 221.664C209.203 221.664 208.243 222.064 207.763 222.912V221.888H206.323V229.584H207.811Z" fill="#151515"/>
<path d="M221.018 224.944C221.082 223.952 221.85 222.976 223.114 222.976C224.474 222.976 225.194 223.84 225.226 224.944H221.018ZM225.45 226.944C225.162 227.808 224.538 228.496 223.29 228.496C221.994 228.496 221.002 227.536 220.97 226.16H226.762C226.778 226.064 226.794 225.872 226.794 225.68C226.794 223.28 225.466 221.648 223.098 221.648C221.162 221.648 219.418 223.296 219.418 225.712C219.418 228.32 221.226 229.824 223.29 229.824C225.082 229.824 226.314 228.752 226.746 227.392L225.45 226.944Z" fill="#151515"/>
<path d="M234.73 219.456H233.354V220.704C233.354 221.376 233.002 221.888 232.17 221.888H231.754V223.248H233.226V227.472C233.226 228.864 234.058 229.664 235.37 229.664C235.882 229.664 236.266 229.568 236.394 229.52V228.24C236.266 228.272 235.994 228.304 235.802 228.304C235.018 228.304 234.73 227.952 234.73 227.248V223.248H236.394V221.888H234.73V219.456Z" fill="#151515"/>
<path d="M241.619 228.48C240.339 228.48 239.219 227.52 239.219 225.728C239.219 223.952 240.339 222.992 241.619 222.992C242.899 222.992 244.019 223.952 244.019 225.728C244.019 227.52 242.899 228.48 241.619 228.48ZM241.619 221.648C239.315 221.648 237.683 223.392 237.683 225.728C237.683 228.08 239.315 229.824 241.619 229.824C243.923 229.824 245.555 228.08 245.555 225.728C245.555 223.392 243.923 221.648 241.619 221.648Z" fill="#151515"/>
<path d="M250.999 227.52C250.999 228.736 252.007 229.824 253.575 229.824C254.951 229.824 255.719 229.088 256.055 228.544C256.055 229.104 256.103 229.392 256.135 229.584H257.607C257.575 229.392 257.511 228.992 257.511 228.32V224.464C257.511 222.96 256.615 221.648 254.311 221.648C252.647 221.648 251.319 222.672 251.159 224.144L252.599 224.48C252.695 223.584 253.287 222.928 254.343 222.928C255.511 222.928 256.007 223.552 256.007 224.304C256.007 224.576 255.879 224.816 255.415 224.88L253.335 225.184C252.007 225.376 250.999 226.144 250.999 227.52ZM253.783 228.56C253.015 228.56 252.535 228.016 252.535 227.44C252.535 226.752 253.015 226.384 253.655 226.288L256.007 225.936V226.288C256.007 227.968 255.015 228.56 253.783 228.56Z" fill="#151515"/>
<path d="M260.75 225.712C260.75 224.128 261.646 223.008 263.022 223.008C264.398 223.008 265.23 224.096 265.23 225.68C265.23 227.264 264.382 228.464 263.006 228.464C261.566 228.464 260.75 227.296 260.75 225.712ZM265.246 228.544C265.246 229.008 265.294 229.408 265.326 229.584H266.782C266.766 229.456 266.702 228.896 266.702 228.16V218H265.214V222.976C264.958 222.352 264.222 221.68 262.862 221.68C260.686 221.68 259.214 223.536 259.214 225.712C259.214 228 260.606 229.792 262.862 229.792C264.062 229.792 264.878 229.152 265.246 228.416V228.544Z" fill="#151515"/>
<path d="M270.157 225.712C270.157 224.128 271.053 223.008 272.429 223.008C273.805 223.008 274.637 224.096 274.637 225.68C274.637 227.264 273.789 228.464 272.413 228.464C270.973 228.464 270.157 227.296 270.157 225.712ZM274.653 228.544C274.653 229.008 274.701 229.408 274.733 229.584H276.189C276.173 229.456 276.109 228.896 276.109 228.16V218H274.621V222.976C274.365 222.352 273.629 221.68 272.269 221.68C270.093 221.68 268.621 223.536 268.621 225.712C268.621 228 270.013 229.792 272.269 229.792C273.469 229.792 274.285 229.152 274.653 228.416V228.544Z" fill="#151515"/>
<path d="M284.587 232.8L289.595 221.888H287.979L285.675 227.2L283.275 221.888H281.547L284.859 228.736L282.939 232.8H284.587Z" fill="#151515"/>
<path d="M294.025 228.48C292.745 228.48 291.625 227.52 291.625 225.728C291.625 223.952 292.745 222.992 294.025 222.992C295.305 222.992 296.425 223.952 296.425 225.728C296.425 227.52 295.305 228.48 294.025 228.48ZM294.025 221.648C291.721 221.648 290.089 223.392 290.089 225.728C290.089 228.08 291.721 229.824 294.025 229.824C296.329 229.824 297.961 228.08 297.961 225.728C297.961 223.392 296.329 221.648 294.025 221.648Z" fill="#151515"/>
<path d="M304.879 228.656C304.879 228.976 304.911 229.408 304.943 229.584H306.383C306.351 229.312 306.303 228.768 306.303 228.16V221.888H304.799V226.528C304.799 227.696 304.191 228.496 302.975 228.496C301.711 228.496 301.231 227.568 301.231 226.512V221.888H299.727V226.736C299.727 228.48 300.815 229.824 302.607 229.824C303.503 229.824 304.463 229.456 304.879 228.656Z" fill="#151515"/>
<path d="M313.142 221.808C313.062 221.792 312.854 221.76 312.646 221.76C311.862 221.76 310.902 222.048 310.342 223.232V221.888H308.87V229.584H310.374V225.728C310.374 224.032 311.222 223.36 312.486 223.36C312.694 223.36 312.918 223.376 313.142 223.408V221.808Z" fill="#151515"/>
<path d="M321.737 217.952C320.345 217.952 319.209 218.88 319.209 220.592V221.888H317.785V223.248H319.209V229.584H320.761V223.248H324.361V229.584H325.849V221.888H320.761V220.656C320.761 219.6 321.449 219.36 321.977 219.36C322.361 219.36 322.553 219.424 322.633 219.456V218.112C322.569 218.064 322.249 217.952 321.737 217.952ZM324.025 218.944C324.025 219.536 324.505 220.016 325.097 220.016C325.705 220.016 326.185 219.536 326.185 218.944C326.185 218.336 325.705 217.856 325.097 217.856C324.505 217.856 324.025 218.336 324.025 218.944Z" fill="#151515"/>
<path d="M332.673 221.808C332.593 221.792 332.385 221.76 332.177 221.76C331.393 221.76 330.433 222.048 329.873 223.232V221.888H328.401V229.584H329.905V225.728C329.905 224.032 330.753 223.36 332.017 223.36C332.225 223.36 332.449 223.376 332.673 223.408V221.808Z" fill="#151515"/>
<path d="M333.556 227.584C333.684 228.464 334.58 229.824 336.692 229.824C338.596 229.824 339.508 228.528 339.508 227.44C339.508 226.304 338.772 225.456 337.38 225.152L336.132 224.88C335.54 224.752 335.252 224.416 335.252 223.952C335.252 223.424 335.764 222.928 336.532 222.928C337.748 222.928 338.068 223.808 338.132 224.208L339.46 223.712C339.3 223.024 338.644 221.648 336.532 221.648C335.028 221.648 333.796 222.768 333.796 224.08C333.796 225.168 334.516 225.984 335.716 226.24L337.028 226.528C337.668 226.672 338.02 227.04 338.02 227.52C338.02 228.064 337.556 228.544 336.708 228.544C335.62 228.544 335.012 227.904 334.916 227.104L333.556 227.584Z" fill="#151515"/>
<path d="M343.527 219.456H342.151V220.704C342.151 221.376 341.799 221.888 340.967 221.888H340.551V223.248H342.023V227.472C342.023 228.864 342.855 229.664 344.167 229.664C344.679 229.664 345.063 229.568 345.191 229.52V228.24C345.063 228.272 344.791 228.304 344.599 228.304C343.815 228.304 343.527 227.952 343.527 227.248V223.248H345.191V221.888H343.527V219.456Z" fill="#151515"/>
<path d="M354.446 231.952V230.752H352.67V218.24H354.446V217.024H351.358V231.952H354.446Z" fill="#D87342"/>
<path d="M357.296 229.584V221.888H355.808V229.584H357.296ZM355.472 218.976C355.472 219.568 355.952 220.048 356.544 220.048C357.152 220.048 357.632 219.568 357.632 218.976C357.632 218.368 357.152 217.888 356.544 217.888C355.952 217.888 355.472 218.368 355.472 218.976Z" fill="#D87342"/>
<path d="M361.87 219.456H360.494V220.704C360.494 221.376 360.142 221.888 359.31 221.888H358.895V223.248H360.367V227.472C360.367 228.864 361.198 229.664 362.51 229.664C363.022 229.664 363.407 229.568 363.535 229.52V228.24C363.407 228.272 363.134 228.304 362.942 228.304C362.158 228.304 361.87 227.952 361.87 227.248V223.248H363.535V221.888H361.87V219.456Z" fill="#D87342"/>
<path d="M366.44 224.944C366.504 223.952 367.272 222.976 368.536 222.976C369.896 222.976 370.616 223.84 370.648 224.944H366.44ZM370.872 226.944C370.584 227.808 369.96 228.496 368.712 228.496C367.416 228.496 366.424 227.536 366.392 226.16H372.184C372.2 226.064 372.216 225.872 372.216 225.68C372.216 223.28 370.888 221.648 368.52 221.648C366.584 221.648 364.84 223.296 364.84 225.712C364.84 228.32 366.648 229.824 368.712 229.824C370.504 229.824 371.736 228.752 372.168 227.392L370.872 226.944Z" fill="#D87342"/>
<path d="M375.624 229.584V224.944C375.624 223.792 376.344 222.992 377.416 222.992C378.568 222.992 379.048 223.76 379.048 224.752V229.584H380.552V224.928C380.552 223.824 381.272 222.992 382.328 222.992C383.464 222.992 383.96 223.744 383.96 224.752V229.584H385.448V224.592C385.448 222.576 384.136 221.664 382.792 221.664C381.816 221.664 380.824 222.016 380.216 223.12C379.8 222.128 378.872 221.664 377.912 221.664C377.016 221.664 376.056 222.064 375.576 222.912V221.888H374.136V229.584H375.624Z" fill="#D87342"/>
<path d="M194.624 245.136C194.624 243.968 195.232 243.024 196.416 243.024C197.76 243.024 198.208 243.888 198.208 244.96V249.584H199.712V244.704C199.712 242.992 198.8 241.664 196.96 241.664C196.064 241.664 195.152 242.032 194.592 242.992V241.888H193.12V249.584H194.624V245.136Z" fill="#D87342"/>
<path d="M201.624 247.52C201.624 248.736 202.632 249.824 204.2 249.824C205.576 249.824 206.344 249.088 206.68 248.544C206.68 249.104 206.728 249.392 206.76 249.584H208.232C208.2 249.392 208.136 248.992 208.136 248.32V244.464C208.136 242.96 207.24 241.648 204.936 241.648C203.272 241.648 201.944 242.672 201.784 244.144L203.224 244.48C203.32 243.584 203.912 242.928 204.968 242.928C206.136 242.928 206.632 243.552 206.632 244.304C206.632 244.576 206.504 244.816 206.04 244.88L203.96 245.184C202.632 245.376 201.624 246.144 201.624 247.52ZM204.408 248.56C203.64 248.56 203.16 248.016 203.16 247.44C203.16 246.752 203.64 246.384 204.28 246.288L206.632 245.936V246.288C206.632 247.968 205.64 248.56 204.408 248.56Z" fill="#D87342"/>
<path d="M211.967 249.584V244.944C211.967 243.792 212.687 242.992 213.759 242.992C214.911 242.992 215.391 243.76 215.391 244.752V249.584H216.895V244.928C216.895 243.824 217.615 242.992 218.671 242.992C219.807 242.992 220.303 243.744 220.303 244.752V249.584H221.791V244.592C221.791 242.576 220.479 241.664 219.135 241.664C218.159 241.664 217.167 242.016 216.559 243.12C216.143 242.128 215.215 241.664 214.255 241.664C213.359 241.664 212.399 242.064 211.919 242.912V241.888H210.479V249.584H211.967Z" fill="#D87342"/>
<path d="M225.174 244.944C225.238 243.952 226.006 242.976 227.27 242.976C228.63 242.976 229.35 243.84 229.382 244.944H225.174ZM229.606 246.944C229.318 247.808 228.694 248.496 227.446 248.496C226.15 248.496 225.158 247.536 225.126 246.16H230.918C230.934 246.064 230.95 245.872 230.95 245.68C230.95 243.28 229.622 241.648 227.254 241.648C225.318 241.648 223.574 243.296 223.574 245.712C223.574 248.32 225.382 249.824 227.446 249.824C229.238 249.824 230.47 248.752 230.902 247.392L229.606 246.944Z" fill="#D87342"/>
<path d="M234.602 251.952V237.024H231.514V238.24H233.29V250.752H231.514V251.952H234.602Z" fill="#D87342"/>
<path d="M315.337 212.928V211.728H313.561V199.216H315.337V198H312.249V212.928H315.337Z" fill="#D87342"/>
<path d="M315.978 208.56C316.106 209.44 317.002 210.8 319.114 210.8C321.018 210.8 321.93 209.504 321.93 208.416C321.93 207.28 321.194 206.432 319.802 206.128L318.554 205.856C317.962 205.728 317.674 205.392 317.674 204.928C317.674 204.4 318.186 203.904 318.954 203.904C320.17 203.904 320.49 204.784 320.554 205.184L321.882 204.688C321.722 204 321.066 202.624 318.954 202.624C317.45 202.624 316.218 203.744 316.218 205.056C316.218 206.144 316.938 206.96 318.138 207.216L319.45 207.504C320.09 207.648 320.442 208.016 320.442 208.496C320.442 209.04 319.978 209.52 319.13 209.52C318.042 209.52 317.434 208.88 317.338 208.08L315.978 208.56Z" fill="#D87342"/>
<path d="M327.15 209.456C325.87 209.456 324.75 208.496 324.75 206.704C324.75 204.928 325.87 203.968 327.15 203.968C328.43 203.968 329.55 204.928 329.55 206.704C329.55 208.496 328.43 209.456 327.15 209.456ZM327.15 202.624C324.846 202.624 323.214 204.368 323.214 206.704C323.214 209.056 324.846 210.8 327.15 210.8C329.454 210.8 331.086 209.056 331.086 206.704C331.086 204.368 329.454 202.624 327.15 202.624Z" fill="#D87342"/>
<path d="M334.514 210.56V198.976H333.01V210.56H334.514Z" fill="#D87342"/>
<path d="M342.067 209.632C342.067 209.952 342.099 210.384 342.131 210.56H343.571C343.539 210.288 343.491 209.744 343.491 209.136V202.864H341.987V207.504C341.987 208.672 341.379 209.472 340.163 209.472C338.899 209.472 338.419 208.544 338.419 207.488V202.864H336.915V207.712C336.915 209.456 338.003 210.8 339.795 210.8C340.691 210.8 341.651 210.432 342.067 209.632Z" fill="#D87342"/>
<path d="M348.073 200.432H346.697V201.68C346.697 202.352 346.345 202.864 345.513 202.864H345.097V204.224H346.569V208.448C346.569 209.84 347.401 210.64 348.713 210.64C349.225 210.64 349.609 210.544 349.737 210.496V209.216C349.609 209.248 349.337 209.28 349.145 209.28C348.361 209.28 348.073 208.928 348.073 208.224V204.224H349.737V202.864H348.073V200.432Z" fill="#D87342"/>
<path d="M353.233 210.56V202.864H351.745V210.56H353.233ZM351.409 199.952C351.409 200.544 351.889 201.024 352.481 201.024C353.089 201.024 353.569 200.544 353.569 199.952C353.569 199.344 353.089 198.864 352.481 198.864C351.889 198.864 351.409 199.344 351.409 199.952Z" fill="#D87342"/>
<path d="M359.088 209.456C357.808 209.456 356.688 208.496 356.688 206.704C356.688 204.928 357.808 203.968 359.088 203.968C360.368 203.968 361.488 204.928 361.488 206.704C361.488 208.496 360.368 209.456 359.088 209.456ZM359.088 202.624C356.784 202.624 355.152 204.368 355.152 206.704C355.152 209.056 356.784 210.8 359.088 210.8C361.392 210.8 363.024 209.056 363.024 206.704C363.024 204.368 361.392 202.624 359.088 202.624Z" fill="#D87342"/>
<path d="M366.452 206.112C366.452 204.944 367.06 204 368.244 204C369.588 204 370.036 204.864 370.036 205.936V210.56H371.54V205.68C371.54 203.968 370.628 202.64 368.788 202.64C367.892 202.64 366.98 203.008 366.42 203.968V202.864H364.948V210.56H366.452V206.112Z" fill="#D87342"/>
<path d="M375.82 212.928V198H372.732V199.216H374.508V211.728H372.732V212.928H375.82Z" fill="#D87342"/>
</g>
<defs>
<filter id="filter0_d_224_1125" x="0" y="0" width="352.687" height="168.064" filterUnits="userSpaceOnUse" color-interpolation-filters="sRGB">
<feFlood flood-opacity="0" result="BackgroundImageFix"/>
<feColorMatrix in="SourceAlpha" type="matrix" values="0 0 0 0 0 0 0 0 0 0 0 0 0 0 0 0 0 0 127 0" result="hardAlpha"/>
<feOffset dx="4" dy="4"/>
<feGaussianBlur stdDeviation="12.5"/>
<feComposite in2="hardAlpha" operator="out"/>
<feColorMatrix type="matrix" values="0 0 0 0 0 0 0 0 0 0 0 0 0 0 0 0 0 0 0.05 0"/>
<feBlend mode="normal" in2="BackgroundImageFix" result="effect1_dropShadow_224_1125"/>
<feBlend mode="normal" in="SourceGraphic" in2="effect1_dropShadow_224_1125" result="shape"/>
</filter>
<filter id="filter1_d_224_1125" x="148" y="145" width="352.687" height="167.952" filterUnits="userSpaceOnUse" color-interpolation-filters="sRGB">
<feFlood flood-opacity="0" result="BackgroundImageFix"/>
<feColorMatrix in="SourceAlpha" type="matrix" values="0 0 0 0 0 0 0 0 0 0 0 0 0 0 0 0 0 0 127 0" result="hardAlpha"/>
<feOffset dx="4" dy="4"/>
<feGaussianBlur stdDeviation="12.5"/>
<feComposite in2="hardAlpha" operator="out"/>
<feColorMatrix type="matrix" values="0 0 0 0 0 0 0 0 0 0 0 0 0 0 0 0 0 0 0.05 0"/>
<feBlend mode="normal" in2="BackgroundImageFix" result="effect1_dropShadow_224_1125"/>
<feBlend mode="normal" in="SourceGraphic" in2="effect1_dropShadow_224_1125" result="shape"/>
</filter>
</defs>
</svg>
