<svg width="158" height="28" viewBox="0 0 158 28" fill="none" xmlns="http://www.w3.org/2000/svg">
<path d="M7.95 10.84C9.72 10.84 10.62 11.92 10.95 13.06L15.03 11.83C14.37 9.16 11.97 6.64 7.86 6.64C3.48 6.64 0 9.91 0 14.56C0 19.18 3.57 22.45 8.01 22.45C12 22.45 14.46 19.87 15.12 17.26L11.1 16.03C10.77 17.14 9.78 18.25 8.01 18.25C6.12 18.25 4.53 16.93 4.53 14.56C4.53 12.16 6.06 10.84 7.95 10.84Z" fill="#FEF9F3"/>
<path d="M24.5899 18.25C22.8799 18.25 21.2299 17.02 21.2299 14.53C21.2299 12.01 22.8799 10.84 24.5899 10.84C26.3299 10.84 27.9499 12.01 27.9499 14.53C27.9499 17.05 26.3299 18.25 24.5899 18.25ZM24.5899 6.64C20.1499 6.64 16.6699 9.91 16.6699 14.53C16.6699 19.15 20.1499 22.45 24.5899 22.45C29.0599 22.45 35.4452 19.15 35.4452 14.53C35.4452 9.91 29.0599 6.64 24.5899 6.64Z" fill="#FEF9F3"/>
<path d="M40.0052 27.7V20.83C40.6952 21.67 42.1352 22.33 44.0552 22.33C48.2252 22.33 51.1652 19.06 51.1652 14.5C51.1652 10.03 48.5552 6.73 44.2352 6.73C42.1052 6.73 40.4852 7.66 39.8552 8.62V7.09H35.4452V27.7H40.0052ZM46.6952 14.53C46.6952 17.02 45.1052 18.25 43.3052 18.25C41.5352 18.25 39.9452 16.99 39.9452 14.53C39.9452 12.04 41.5352 10.84 43.3052 10.84C45.1052 10.84 46.6952 12.04 46.6952 14.53Z" fill="#FEF9F3"/>
<path d="M59.1956 27.73L68.3756 7.09H63.5456L60.2456 15.07L56.6156 7.09H51.5156L57.7856 19.99L54.3956 27.73H59.1956Z" fill="#FEF9F3"/>
<path d="M75.0994 22V20.32C75.7894 21.46 77.3194 22.33 79.2994 22.33C83.4694 22.33 86.4094 19.06 86.4094 14.5C86.4094 10.03 83.7994 6.73 79.4794 6.73C77.4394 6.73 75.7894 7.57 75.1594 8.5V0.279999H70.6894V22H75.0994ZM81.8494 14.53C81.8494 17.02 80.2594 18.25 78.4894 18.25C76.7194 18.25 75.0994 16.99 75.0994 14.53C75.0994 12.01 76.7194 10.84 78.4894 10.84C80.2594 10.84 81.8494 12.01 81.8494 14.53Z" fill="#FEF9F3"/>
<path d="M98.9522 22H103.332C103.302 21.76 103.182 20.68 103.182 19.33V7.09H98.6222V15.58C98.6222 17.08 97.6622 18.13 96.1322 18.13C94.5122 18.13 93.7322 16.99 93.7322 15.55V7.09H89.1722V16.51C89.1722 19.69 91.2122 22.33 94.8422 22.33C96.3422 22.33 98.0522 21.79 98.8322 20.5C98.8322 20.89 98.8922 21.73 98.9522 22Z" fill="#FEF9F3"/>
<path d="M121.834 0.279999H117.334V8.26C116.974 7.69 115.864 6.73 113.314 6.73C109.084 6.73 106.084 10.06 106.084 14.5C106.084 19.09 109.264 22.33 113.464 22.33C115.264 22.33 116.764 21.58 117.454 20.56C117.454 21.16 117.544 21.82 117.574 22H121.954C121.924 21.67 121.834 20.68 121.834 19.33V0.279999ZM110.674 14.53C110.674 12.04 112.264 10.84 114.034 10.84C115.804 10.84 117.394 12.04 117.394 14.53C117.394 16.99 115.804 18.25 114.034 18.25C112.264 18.25 110.674 16.99 110.674 14.53Z" fill="#FEF9F3"/>
<path d="M140.613 0.279999H136.113V8.26C135.753 7.69 134.643 6.73 132.093 6.73C127.863 6.73 124.863 10.06 124.863 14.5C124.863 19.09 128.043 22.33 132.243 22.33C134.043 22.33 135.543 21.58 136.233 20.56C136.233 21.16 136.323 21.82 136.353 22H140.733C140.703 21.67 140.613 20.68 140.613 19.33V0.279999ZM129.453 14.53C129.453 12.04 131.043 10.84 132.813 10.84C134.583 10.84 136.173 12.04 136.173 14.53C136.173 16.99 134.583 18.25 132.813 18.25C131.043 18.25 129.453 16.99 129.453 14.53Z" fill="#FEF9F3"/>
<path d="M148.48 27.73L157.66 7.09H152.83L149.53 15.07L145.9 7.09H140.8L147.07 19.99L143.68 27.73H148.48Z" fill="#FEF9F3"/>
</svg>
