<svg width="23" height="22" viewBox="0 0 23 22" fill="none" xmlns="http://www.w3.org/2000/svg">
<path d="M21.0262 6.28566V20.4285H6.89486V6.28566H21.0262ZM21.0262 4.71423H6.89486C6.47843 4.71423 6.07906 4.87979 5.78459 5.17449C5.49013 5.46919 5.32471 5.86889 5.32471 6.28566V20.4285C5.32471 20.8453 5.49013 21.245 5.78459 21.5397C6.07906 21.8344 6.47843 21.9999 6.89486 21.9999H21.0262C21.4427 21.9999 21.8421 21.8344 22.1365 21.5397C22.431 21.245 22.5964 20.8453 22.5964 20.4285V6.28566C22.5964 5.86889 22.431 5.46919 22.1365 5.17449C21.8421 4.87979 21.4427 4.71423 21.0262 4.71423Z" fill="white"/>
<path d="M2.18441 12.5714H0.614258V1.57143C0.614258 1.15466 0.779684 0.754961 1.07415 0.460261C1.36861 0.165561 1.76798 0 2.18441 0H13.1755V1.57143H2.18441V12.5714Z" fill="white"/>
</svg>
